<?xml version="1.0" encoding="UTF-8" standalone="no"?>
<!-- Generator: Adobe Illustrator 21.1.0, SVG Export Plug-In . SVG Version: 6.00 Build 0)  -->

<svg
   xmlns:dc="http://purl.org/dc/elements/1.1/"
   xmlns:cc="http://creativecommons.org/ns#"
   xmlns:rdf="http://www.w3.org/1999/02/22-rdf-syntax-ns#"
   xmlns:svg="http://www.w3.org/2000/svg"
   xmlns="http://www.w3.org/2000/svg"
   xmlns:sodipodi="http://sodipodi.sourceforge.net/DTD/sodipodi-0.dtd"
   xmlns:inkscape="http://www.inkscape.org/namespaces/inkscape"
   version="1.1"
   id="Layer_1"
   x="0px"
   y="0px"
   viewBox="0 0 4493.8582 3178.5828"
   xml:space="preserve"
   inkscape:version="0.92.1 r15371"
   sodipodi:docname="osgeo-francophone-A0.svg"
   width="1189mm"
   height="841mm"
   inkscape:export-filename="/home/simon/Bureau/osgeo-fr-logo.png"
   inkscape:export-xdpi="112.86"
   inkscape:export-ydpi="112.86"><metadata
     id="metadata71"><rdf:RDF><cc:Work
         rdf:about=""><dc:format>image/svg+xml</dc:format><dc:type
           rdf:resource="http://purl.org/dc/dcmitype/StillImage" /><dc:title></dc:title></cc:Work></rdf:RDF></metadata><defs
     id="defs69" /><sodipodi:namedview
     pagecolor="#ffffff"
     bordercolor="#666666"
     borderopacity="1"
     objecttolerance="10"
     gridtolerance="10"
     guidetolerance="10"
     inkscape:pageopacity="0"
     inkscape:pageshadow="2"
     inkscape:window-width="2048"
     inkscape:window-height="1076"
     id="namedview67"
     showgrid="false"
     inkscape:zoom="0.19643198"
     inkscape:cx="2246.9291"
     inkscape:cy="1589.2913"
     inkscape:window-x="-9"
     inkscape:window-y="-9"
     inkscape:window-maximized="1"
     inkscape:current-layer="Layer_1"
     fit-margin-top="0"
     fit-margin-left="0"
     fit-margin-right="0"
     fit-margin-bottom="0"
     units="mm"
     inkscape:document-units="mm" /><style
     type="text/css"
     id="style3">
	.st0{fill:#0B3A42;}
	.st1{fill:#4DB05B;}
	.st2{fill:#003A40;}
</style><g
     inkscape:groupmode="layer"
     id="layer2"
     inkscape:label="Layer 1"
     transform="translate(0,3078.3827)" /><g
     id="g5"
     transform="matrix(16.2,0,0,16.2,97.335236,48.540948)"><g
       id="g7"
       transform="translate(-7,-4.2426407)"
       style="fill:#35b1b3;fill-opacity:1"><flowRoot
         xml:space="preserve"
         id="flowRoot4515"
         style="font-style:normal;font-weight:normal;font-size:40px;line-height:1.25;font-family:sans-serif;letter-spacing:0px;word-spacing:0px;fill:#35b1b3;fill-opacity:1;stroke:none"><flowRegion
           id="flowRegion4517"
           style="fill:#35b1b3;fill-opacity:1"><rect
             id="rect4519"
             width="266"
             height="45.5"
             x="-3"
             y="-110.8"
             style="fill:#35b1b3;fill-opacity:1" /></flowRegion><flowPara
           id="flowPara4521" /></flowRoot><text
         xml:space="preserve"
         style="font-style:normal;font-variant:normal;font-weight:normal;font-stretch:normal;font-size:40px;line-height:1.25;font-family:SansSerif;-inkscape-font-specification:SansSerif;letter-spacing:0px;word-spacing:0px;fill:#003a40;fill-opacity:1;stroke:none"
         x="103"
         y="92.699997"
         id="text4525"><tspan
           sodipodi:role="line"
           id="tspan4523"
           x="103"
           y="92.699997"
           style="font-style:normal;font-variant:normal;font-weight:normal;font-stretch:normal;font-size:28px;font-family:'Miriam Libre';-inkscape-font-specification:'Miriam Libre';fill:#003a40;fill-opacity:1">Francophone</tspan></text>
</g><g
       id="g33"><path
         class="st1"
         d="M 105.3,63.4 C 102.9,62 101,60.1 99.6,57.7 98.2,55.3 97.5,52.6 97.5,49.8 V 37 c 0,-2.9 0.7,-5.5 2.1,-7.9 1.4,-2.4 3.3,-4.3 5.7,-5.7 2.4,-1.4 5.1,-2.1 7.9,-2.1 2.9,0 5.5,0.7 7.9,2.1 2.4,1.4 4.3,3.3 5.7,5.7 1.4,2.4 2.1,5.1 2.1,7.9 v 12.7 c 0,2.9 -0.7,5.5 -2.1,7.9 -1.4,2.4 -3.3,4.3 -5.7,5.7 -2.4,1.4 -5.1,2.1 -7.9,2.1 -2.9,0.1 -5.5,-0.6 -7.9,-2 m 12.1,-6.1 c 1.3,-0.8 2.3,-1.9 3.1,-3.2 0.8,-1.4 1.2,-2.8 1.2,-4.4 V 37 c 0,-1.6 -0.4,-3 -1.2,-4.4 -0.8,-1.4 -1.8,-2.4 -3.1,-3.2 -1.3,-0.8 -2.7,-1.2 -4.2,-1.2 -1.5,0 -2.9,0.4 -4.2,1.2 -1.3,0.8 -2.3,1.9 -3.1,3.2 -0.8,1.4 -1.2,2.8 -1.2,4.4 v 12.7 c 0,1.6 0.4,3 1.2,4.4 0.8,1.4 1.8,2.4 3.1,3.2 1.3,0.8 2.7,1.2 4.2,1.2 1.5,0 2.9,-0.4 4.2,-1.2"
         id="path35"
         inkscape:connector-curvature="0"
         style="fill:#4db05b" /><path
         class="st1"
         d="m 140.5,64.4 c -2.1,-0.7 -4,-1.7 -5.8,-2.9 -0.2,-0.1 -0.3,-0.3 -0.4,-0.6 -0.1,-0.3 -0.1,-0.6 0.1,-0.8 l 2.1,-3.8 c 0.2,-0.5 0.6,-0.7 1.1,-0.7 0.3,0 0.6,0.1 0.9,0.2 3,1.9 5.7,2.8 8.3,2.8 2.1,0 3.8,-0.5 5,-1.5 1.2,-1 1.8,-2.3 1.8,-4 0,-1.1 -0.3,-2 -0.9,-2.7 -0.6,-0.7 -1.4,-1.4 -2.4,-1.9 -1,-0.5 -2.4,-1.2 -4.3,-1.9 l -1.7,-0.7 c -2.7,-1.2 -5,-2.6 -6.8,-4.4 -1.8,-1.8 -2.8,-4.4 -2.8,-7.9 0,-2.4 0.5,-4.6 1.6,-6.5 1.1,-1.9 2.6,-3.3 4.6,-4.4 1.9,-1 4.2,-1.6 6.7,-1.6 2.1,0 4.2,0.4 6.3,1 2.1,0.7 4,1.7 5.6,2.9 0.2,0.1 0.3,0.3 0.4,0.6 0.1,0.3 0.1,0.6 -0.1,0.8 l -2,3.8 c -0.2,0.5 -0.6,0.7 -1.1,0.7 -0.3,0 -0.6,-0.1 -0.9,-0.2 -1.5,-1 -3,-1.7 -4.4,-2.2 -1.4,-0.4 -2.7,-0.7 -3.8,-0.7 -1.8,0 -3.2,0.5 -4.2,1.5 -1,1 -1.5,2.2 -1.5,3.7 0,1.6 0.6,2.8 1.7,3.9 1.1,1 2.9,2 5.4,3.1 0.4,0.1 1.7,0.7 4.1,1.6 2.4,1 4.2,2.4 5.6,4.3 1.4,1.9 2.1,4.1 2.1,6.6 0,2.5 -0.6,4.7 -1.8,6.6 -1.2,1.9 -2.8,3.4 -4.9,4.5 -2.1,1.1 -4.5,1.6 -7.3,1.6 -2.1,0.2 -4.2,-0.1 -6.3,-0.8"
         id="path37"
         inkscape:connector-curvature="0"
         style="fill:#4db05b" /><path
         class="st2"
         d="m 174.2,63.4 c -2.4,-1.4 -4.3,-3.3 -5.7,-5.7 -1.4,-2.4 -2.1,-5.1 -2.1,-7.9 V 37 c 0,-2.9 0.7,-5.5 2.1,-7.9 1.4,-2.4 3.3,-4.3 5.7,-5.7 2.4,-1.4 5,-2.1 7.9,-2.1 2.5,0 4.8,0.5 7,1.3 2.1,0.9 4,2.2 5.5,3.9 0.2,0.3 0.4,0.6 0.4,1 0,0.4 -0.2,0.8 -0.5,1.2 l -2.6,2.7 c -0.3,0.3 -0.6,0.5 -1,0.5 -0.4,0 -0.8,-0.2 -1.1,-0.5 -2,-2.1 -4.5,-3.2 -7.6,-3.2 -1.5,0 -2.9,0.4 -4.2,1.2 -1.3,0.8 -2.4,1.9 -3.1,3.2 -0.8,1.4 -1.2,2.8 -1.2,4.4 v 12.7 c 0,1.6 0.4,3 1.2,4.4 0.8,1.4 1.8,2.4 3.1,3.2 1.3,0.8 2.7,1.2 4.2,1.2 1.5,0 2.9,-0.4 4.2,-1.1 1.3,-0.8 2.3,-1.8 3.1,-3.1 0.8,-1.3 1.1,-2.8 1.1,-4.3 v -3 h -8 c -0.4,0 -0.7,-0.1 -0.9,-0.4 -0.2,-0.2 -0.4,-0.5 -0.4,-0.9 v -4.3 c 0,-0.4 0.1,-0.7 0.4,-0.9 0.2,-0.2 0.5,-0.4 0.9,-0.4 h 12.6 c 0.7,0 1.3,0.2 1.8,0.7 0.5,0.5 0.7,1.1 0.7,1.8 v 6.9 c 0,2.9 -0.7,5.5 -2.1,7.9 -1.4,2.4 -3.3,4.3 -5.7,5.7 -2.4,1.4 -5,2.1 -7.8,2.1 -2.9,0.3 -5.5,-0.4 -7.9,-1.8"
         id="path39"
         inkscape:connector-curvature="0"
         style="fill:#003a40" /><path
         class="st2"
         d="m 210.8,62.8 c -2.2,-1.3 -3.9,-3 -5.1,-5.2 -1.3,-2.2 -1.9,-4.6 -1.9,-7.2 V 44 c 0,-2.6 0.6,-5 1.9,-7.2 1.3,-2.2 3,-3.9 5.1,-5.2 2.2,-1.3 4.5,-1.9 7.1,-1.9 2.6,0 4.9,0.6 7.1,1.9 2.2,1.3 3.9,3 5.1,5.2 1.3,2.2 1.9,4.6 1.9,7.2 v 4 c 0,0.7 -0.3,1.3 -0.7,1.8 -0.5,0.5 -1.1,0.7 -1.8,0.7 h -18.6 v 0.3 c 0,2 0.7,3.6 2.1,5 1.4,1.4 3,2.1 5,2.1 h 9.5 c 0.4,0 0.7,0.1 0.9,0.4 0.2,0.2 0.4,0.5 0.4,0.9 v 4.3 c 0,0.4 -0.1,0.7 -0.4,0.9 -0.2,0.2 -0.5,0.4 -0.9,0.4 H 218 c -2.6,-0.1 -5,-0.7 -7.2,-2 M 225,44.1 v -0.5 c 0,-2 -0.7,-3.6 -2.1,-5 -1.4,-1.4 -3,-2.1 -5,-2.1 -1.9,0 -3.6,0.7 -5,2.1 -1.4,1.4 -2.1,3 -2.1,5 v 0.5 z"
         id="path41"
         inkscape:connector-curvature="0"
         style="fill:#003a40" /><path
         class="st2"
         d="m 244.5,63.6 c -2.2,-1.3 -3.9,-3 -5.1,-5.1 -1.3,-2.2 -1.9,-4.5 -1.9,-7 v -7.8 c 0,-2.5 0.6,-4.8 1.9,-7 1.3,-2.1 3,-3.9 5.1,-5.1 2.2,-1.3 4.5,-1.9 7.1,-1.9 2.6,0 4.9,0.6 7.1,1.9 2.2,1.3 3.9,3 5.1,5.1 1.3,2.2 1.9,4.5 1.9,7 v 7.8 c 0,2.5 -0.6,4.8 -1.9,7 -1.3,2.2 -3,3.9 -5.1,5.1 -2.2,1.3 -4.5,1.9 -7.1,1.9 -2.5,0 -4.9,-0.6 -7.1,-1.9 m 12.1,-7.1 c 1.4,-1.4 2.1,-3 2.1,-5 v -7.8 c 0,-2 -0.7,-3.6 -2.1,-5 -1.4,-1.4 -3,-2.1 -5,-2.1 -1.9,0 -3.6,0.7 -5,2.1 -1.4,1.4 -2.1,3 -2.1,5 v 7.8 c 0,2 0.7,3.6 2.1,5 1.4,1.4 3,2.1 5,2.1 2,0 3.6,-0.7 5,-2.1"
         id="path43"
         inkscape:connector-curvature="0"
         style="fill:#003a40" /><path
         class="st1"
         d="M 41.2,17.4 V 8.7 0 L 35.8,9.5 C 21,12.8 9.8,25.6 8.8,41.2 h 8.7 c 1,-12.6 11,-22.7 23.7,-23.8"
         id="path45"
         inkscape:connector-curvature="0"
         style="fill:#4db05b" /><path
         class="st2"
         d="M 17.4,45.5 H 8.7 0 L 9.5,51 c 3.3,14.8 16.1,26 31.7,27 V 69.3 C 28.5,68.2 18.5,58.2 17.4,45.5"
         id="path47"
         inkscape:connector-curvature="0"
         style="fill:#003a40" /><path
         class="st2"
         d="M 69.3,41.2 H 78 86.7 L 77.2,35.8 C 73.9,21 61.1,9.8 45.5,8.8 v 8.7 c 12.6,1 22.7,11 23.8,23.7"
         id="path49"
         inkscape:connector-curvature="0"
         style="fill:#003a40" /><path
         class="st1"
         d="m 45.5,69.3 v 8.7 8.7 l 5.4,-9.5 c 14.8,-3.3 26,-16.1 27,-31.7 h -8.7 c -1,12.6 -11.1,22.7 -23.7,23.8"
         id="path51"
         inkscape:connector-curvature="0"
         style="fill:#4db05b" /><path
         class="st2"
         d="M 46,40.7 29.9,29.9 40.7,46 56.8,56.7 Z m -2.7,4.5 c -1,0 -1.9,-0.8 -1.9,-1.9 0,-1 0.8,-1.9 1.9,-1.9 1,0 1.9,0.8 1.9,1.9 0,1.1 -0.8,1.9 -1.9,1.9"
         id="path53"
         inkscape:connector-curvature="0"
         style="fill:#003a40" /><polygon
         class="st1"
         points="40.7,46 37.1,40.6 20.6,43.4 37.1,46.1 29.9,56.8 40.6,49.6 43.3,66.1 46.1,49.6 "
         id="polygon55"
         style="fill:#4db05b" /><polygon
         class="st1"
         points="49.6,40.6 56.8,29.9 46.1,37.1 43.3,20.6 40.6,37.1 46,40.7 49.6,46.1 66.1,43.3 "
         id="polygon57"
         style="fill:#4db05b" /></g></g><g
     transform="matrix(16.2,0,0,16.2,86.535974,1594.6882)"
     id="g1456"><g
       style="fill:#35b1b3;fill-opacity:1"
       transform="translate(-7,-4.2426407)"
       id="g1428"><flowRoot
         style="font-style:normal;font-weight:normal;font-size:40px;line-height:1.25;font-family:sans-serif;letter-spacing:0px;word-spacing:0px;fill:#35b1b3;fill-opacity:1;stroke:none"
         id="flowRoot1422"
         xml:space="preserve"><flowRegion
           style="fill:#35b1b3;fill-opacity:1"
           id="flowRegion1418"><rect
             style="fill:#35b1b3;fill-opacity:1"
             y="-110.8"
             x="-3"
             height="45.5"
             width="266"
             id="rect1416" /></flowRegion><flowPara
           id="flowPara1420" /></flowRoot><text
         id="text1426"
         y="92.699997"
         x="103"
         style="font-style:normal;font-variant:normal;font-weight:normal;font-stretch:normal;font-size:40px;line-height:1.25;font-family:SansSerif;-inkscape-font-specification:SansSerif;letter-spacing:0px;word-spacing:0px;fill:#003a40;fill-opacity:1;stroke:none"
         xml:space="preserve"><tspan
           style="font-style:normal;font-variant:normal;font-weight:normal;font-stretch:normal;font-size:28px;font-family:'Miriam Libre';-inkscape-font-specification:'Miriam Libre';fill:#003a40;fill-opacity:1"
           y="92.699997"
           x="103"
           id="tspan1424"
           sodipodi:role="line">Francophone</tspan></text>
</g><g
       id="g1454"><path
         style="fill:#4db05b"
         inkscape:connector-curvature="0"
         id="path1430"
         d="M 105.3,63.4 C 102.9,62 101,60.1 99.6,57.7 98.2,55.3 97.5,52.6 97.5,49.8 V 37 c 0,-2.9 0.7,-5.5 2.1,-7.9 1.4,-2.4 3.3,-4.3 5.7,-5.7 2.4,-1.4 5.1,-2.1 7.9,-2.1 2.9,0 5.5,0.7 7.9,2.1 2.4,1.4 4.3,3.3 5.7,5.7 1.4,2.4 2.1,5.1 2.1,7.9 v 12.7 c 0,2.9 -0.7,5.5 -2.1,7.9 -1.4,2.4 -3.3,4.3 -5.7,5.7 -2.4,1.4 -5.1,2.1 -7.9,2.1 -2.9,0.1 -5.5,-0.6 -7.9,-2 m 12.1,-6.1 c 1.3,-0.8 2.3,-1.9 3.1,-3.2 0.8,-1.4 1.2,-2.8 1.2,-4.4 V 37 c 0,-1.6 -0.4,-3 -1.2,-4.4 -0.8,-1.4 -1.8,-2.4 -3.1,-3.2 -1.3,-0.8 -2.7,-1.2 -4.2,-1.2 -1.5,0 -2.9,0.4 -4.2,1.2 -1.3,0.8 -2.3,1.9 -3.1,3.2 -0.8,1.4 -1.2,2.8 -1.2,4.4 v 12.7 c 0,1.6 0.4,3 1.2,4.4 0.8,1.4 1.8,2.4 3.1,3.2 1.3,0.8 2.7,1.2 4.2,1.2 1.5,0 2.9,-0.4 4.2,-1.2"
         class="st1" /><path
         style="fill:#4db05b"
         inkscape:connector-curvature="0"
         id="path1432"
         d="m 140.5,64.4 c -2.1,-0.7 -4,-1.7 -5.8,-2.9 -0.2,-0.1 -0.3,-0.3 -0.4,-0.6 -0.1,-0.3 -0.1,-0.6 0.1,-0.8 l 2.1,-3.8 c 0.2,-0.5 0.6,-0.7 1.1,-0.7 0.3,0 0.6,0.1 0.9,0.2 3,1.9 5.7,2.8 8.3,2.8 2.1,0 3.8,-0.5 5,-1.5 1.2,-1 1.8,-2.3 1.8,-4 0,-1.1 -0.3,-2 -0.9,-2.7 -0.6,-0.7 -1.4,-1.4 -2.4,-1.9 -1,-0.5 -2.4,-1.2 -4.3,-1.9 l -1.7,-0.7 c -2.7,-1.2 -5,-2.6 -6.8,-4.4 -1.8,-1.8 -2.8,-4.4 -2.8,-7.9 0,-2.4 0.5,-4.6 1.6,-6.5 1.1,-1.9 2.6,-3.3 4.6,-4.4 1.9,-1 4.2,-1.6 6.7,-1.6 2.1,0 4.2,0.4 6.3,1 2.1,0.7 4,1.7 5.6,2.9 0.2,0.1 0.3,0.3 0.4,0.6 0.1,0.3 0.1,0.6 -0.1,0.8 l -2,3.8 c -0.2,0.5 -0.6,0.7 -1.1,0.7 -0.3,0 -0.6,-0.1 -0.9,-0.2 -1.5,-1 -3,-1.7 -4.4,-2.2 -1.4,-0.4 -2.7,-0.7 -3.8,-0.7 -1.8,0 -3.2,0.5 -4.2,1.5 -1,1 -1.5,2.2 -1.5,3.7 0,1.6 0.6,2.8 1.7,3.9 1.1,1 2.9,2 5.4,3.1 0.4,0.1 1.7,0.7 4.1,1.6 2.4,1 4.2,2.4 5.6,4.3 1.4,1.9 2.1,4.1 2.1,6.6 0,2.5 -0.6,4.7 -1.8,6.6 -1.2,1.9 -2.8,3.4 -4.9,4.5 -2.1,1.1 -4.5,1.6 -7.3,1.6 -2.1,0.2 -4.2,-0.1 -6.3,-0.8"
         class="st1" /><path
         style="fill:#003a40"
         inkscape:connector-curvature="0"
         id="path1434"
         d="m 174.2,63.4 c -2.4,-1.4 -4.3,-3.3 -5.7,-5.7 -1.4,-2.4 -2.1,-5.1 -2.1,-7.9 V 37 c 0,-2.9 0.7,-5.5 2.1,-7.9 1.4,-2.4 3.3,-4.3 5.7,-5.7 2.4,-1.4 5,-2.1 7.9,-2.1 2.5,0 4.8,0.5 7,1.3 2.1,0.9 4,2.2 5.5,3.9 0.2,0.3 0.4,0.6 0.4,1 0,0.4 -0.2,0.8 -0.5,1.2 l -2.6,2.7 c -0.3,0.3 -0.6,0.5 -1,0.5 -0.4,0 -0.8,-0.2 -1.1,-0.5 -2,-2.1 -4.5,-3.2 -7.6,-3.2 -1.5,0 -2.9,0.4 -4.2,1.2 -1.3,0.8 -2.4,1.9 -3.1,3.2 -0.8,1.4 -1.2,2.8 -1.2,4.4 v 12.7 c 0,1.6 0.4,3 1.2,4.4 0.8,1.4 1.8,2.4 3.1,3.2 1.3,0.8 2.7,1.2 4.2,1.2 1.5,0 2.9,-0.4 4.2,-1.1 1.3,-0.8 2.3,-1.8 3.1,-3.1 0.8,-1.3 1.1,-2.8 1.1,-4.3 v -3 h -8 c -0.4,0 -0.7,-0.1 -0.9,-0.4 -0.2,-0.2 -0.4,-0.5 -0.4,-0.9 v -4.3 c 0,-0.4 0.1,-0.7 0.4,-0.9 0.2,-0.2 0.5,-0.4 0.9,-0.4 h 12.6 c 0.7,0 1.3,0.2 1.8,0.7 0.5,0.5 0.7,1.1 0.7,1.8 v 6.9 c 0,2.9 -0.7,5.5 -2.1,7.9 -1.4,2.4 -3.3,4.3 -5.7,5.7 -2.4,1.4 -5,2.1 -7.8,2.1 -2.9,0.3 -5.5,-0.4 -7.9,-1.8"
         class="st2" /><path
         style="fill:#003a40"
         inkscape:connector-curvature="0"
         id="path1436"
         d="m 210.8,62.8 c -2.2,-1.3 -3.9,-3 -5.1,-5.2 -1.3,-2.2 -1.9,-4.6 -1.9,-7.2 V 44 c 0,-2.6 0.6,-5 1.9,-7.2 1.3,-2.2 3,-3.9 5.1,-5.2 2.2,-1.3 4.5,-1.9 7.1,-1.9 2.6,0 4.9,0.6 7.1,1.9 2.2,1.3 3.9,3 5.1,5.2 1.3,2.2 1.9,4.6 1.9,7.2 v 4 c 0,0.7 -0.3,1.3 -0.7,1.8 -0.5,0.5 -1.1,0.7 -1.8,0.7 h -18.6 v 0.3 c 0,2 0.7,3.6 2.1,5 1.4,1.4 3,2.1 5,2.1 h 9.5 c 0.4,0 0.7,0.1 0.9,0.4 0.2,0.2 0.4,0.5 0.4,0.9 v 4.3 c 0,0.4 -0.1,0.7 -0.4,0.9 -0.2,0.2 -0.5,0.4 -0.9,0.4 H 218 c -2.6,-0.1 -5,-0.7 -7.2,-2 M 225,44.1 v -0.5 c 0,-2 -0.7,-3.6 -2.1,-5 -1.4,-1.4 -3,-2.1 -5,-2.1 -1.9,0 -3.6,0.7 -5,2.1 -1.4,1.4 -2.1,3 -2.1,5 v 0.5 z"
         class="st2" /><path
         style="fill:#003a40"
         inkscape:connector-curvature="0"
         id="path1438"
         d="m 244.5,63.6 c -2.2,-1.3 -3.9,-3 -5.1,-5.1 -1.3,-2.2 -1.9,-4.5 -1.9,-7 v -7.8 c 0,-2.5 0.6,-4.8 1.9,-7 1.3,-2.1 3,-3.9 5.1,-5.1 2.2,-1.3 4.5,-1.9 7.1,-1.9 2.6,0 4.9,0.6 7.1,1.9 2.2,1.3 3.9,3 5.1,5.1 1.3,2.2 1.9,4.5 1.9,7 v 7.8 c 0,2.5 -0.6,4.8 -1.9,7 -1.3,2.2 -3,3.9 -5.1,5.1 -2.2,1.3 -4.5,1.9 -7.1,1.9 -2.5,0 -4.9,-0.6 -7.1,-1.9 m 12.1,-7.1 c 1.4,-1.4 2.1,-3 2.1,-5 v -7.8 c 0,-2 -0.7,-3.6 -2.1,-5 -1.4,-1.4 -3,-2.1 -5,-2.1 -1.9,0 -3.6,0.7 -5,2.1 -1.4,1.4 -2.1,3 -2.1,5 v 7.8 c 0,2 0.7,3.6 2.1,5 1.4,1.4 3,2.1 5,2.1 2,0 3.6,-0.7 5,-2.1"
         class="st2" /><path
         style="fill:#4db05b"
         inkscape:connector-curvature="0"
         id="path1440"
         d="M 41.2,17.4 V 8.7 0 L 35.8,9.5 C 21,12.8 9.8,25.6 8.8,41.2 h 8.7 c 1,-12.6 11,-22.7 23.7,-23.8"
         class="st1" /><path
         style="fill:#003a40"
         inkscape:connector-curvature="0"
         id="path1442"
         d="M 17.4,45.5 H 8.7 0 L 9.5,51 c 3.3,14.8 16.1,26 31.7,27 V 69.3 C 28.5,68.2 18.5,58.2 17.4,45.5"
         class="st2" /><path
         style="fill:#003a40"
         inkscape:connector-curvature="0"
         id="path1444"
         d="M 69.3,41.2 H 78 86.7 L 77.2,35.8 C 73.9,21 61.1,9.8 45.5,8.8 v 8.7 c 12.6,1 22.7,11 23.8,23.7"
         class="st2" /><path
         style="fill:#4db05b"
         inkscape:connector-curvature="0"
         id="path1446"
         d="m 45.5,69.3 v 8.7 8.7 l 5.4,-9.5 c 14.8,-3.3 26,-16.1 27,-31.7 h -8.7 c -1,12.6 -11.1,22.7 -23.7,23.8"
         class="st1" /><path
         style="fill:#003a40"
         inkscape:connector-curvature="0"
         id="path1448"
         d="M 46,40.7 29.9,29.9 40.7,46 56.8,56.7 Z m -2.7,4.5 c -1,0 -1.9,-0.8 -1.9,-1.9 0,-1 0.8,-1.9 1.9,-1.9 1,0 1.9,0.8 1.9,1.9 0,1.1 -0.8,1.9 -1.9,1.9"
         class="st2" /><polygon
         style="fill:#4db05b"
         id="polygon1450"
         points="37.1,40.6 20.6,43.4 37.1,46.1 29.9,56.8 40.6,49.6 43.3,66.1 46.1,49.6 40.7,46 "
         class="st1" /><polygon
         style="fill:#4db05b"
         id="polygon1452"
         points="56.8,29.9 46.1,37.1 43.3,20.6 40.6,37.1 46,40.7 49.6,46.1 66.1,43.3 49.6,40.6 "
         class="st1" /></g></g></svg>