<?xml version="1.0" encoding="UTF-8" standalone="no"?>
<!-- Generator: Adobe Illustrator 21.1.0, SVG Export Plug-In . SVG Version: 6.00 Build 0)  -->

<svg
   xmlns:dc="http://purl.org/dc/elements/1.1/"
   xmlns:cc="http://creativecommons.org/ns#"
   xmlns:rdf="http://www.w3.org/1999/02/22-rdf-syntax-ns#"
   xmlns:svg="http://www.w3.org/2000/svg"
   xmlns="http://www.w3.org/2000/svg"
   xmlns:sodipodi="http://sodipodi.sourceforge.net/DTD/sodipodi-0.dtd"
   xmlns:inkscape="http://www.inkscape.org/namespaces/inkscape"
   version="1.1"
   id="Layer_1"
   x="0px"
   y="0px"
   viewBox="0 0 354.87789 100.2"
   xml:space="preserve"
   inkscape:version="0.91 r13725"
   sodipodi:docname="osgeo-fr-logo.svg"
   width="354.8779"
   height="100.2"
   inkscape:export-filename="/home/simon/Bureau/osgeo-fr-logo.png"
   inkscape:export-xdpi="112.86"
   inkscape:export-ydpi="112.86"><metadata
     id="metadata71"><rdf:RDF><cc:Work
         rdf:about=""><dc:format>image/svg+xml</dc:format><dc:type
           rdf:resource="http://purl.org/dc/dcmitype/StillImage" /><dc:title /></cc:Work></rdf:RDF></metadata><defs
     id="defs69" /><sodipodi:namedview
     pagecolor="#ffffff"
     bordercolor="#666666"
     borderopacity="1"
     objecttolerance="10"
     gridtolerance="10"
     guidetolerance="10"
     inkscape:pageopacity="0"
     inkscape:pageshadow="2"
     inkscape:window-width="1920"
     inkscape:window-height="1056"
     id="namedview67"
     showgrid="false"
     inkscape:zoom="0.90178055"
     inkscape:cx="13.379512"
     inkscape:cy="45.369301"
     inkscape:window-x="0"
     inkscape:window-y="24"
     inkscape:window-maximized="1"
     inkscape:current-layer="layer2"
     fit-margin-top="0"
     fit-margin-left="0"
     fit-margin-right="0"
     fit-margin-bottom="0" /><style
     type="text/css"
     id="style3">
	.st0{fill:#0B3A42;}
	.st1{fill:#4DB05B;}
	.st2{fill:#003A40;}
</style><g
     inkscape:groupmode="layer"
     id="layer2"
     inkscape:label="Layer 1"><circle
       style="color:#000000;clip-rule:nonzero;display:inline;overflow:visible;visibility:visible;opacity:1;isolation:auto;mix-blend-mode:normal;color-interpolation:sRGB;color-interpolation-filters:linearRGB;solid-color:#000000;solid-opacity:1;fill:#ffffff;fill-opacity:1;fill-rule:evenodd;stroke:none;stroke-width:8.09000015;stroke-linecap:round;stroke-linejoin:miter;stroke-miterlimit:4;stroke-dasharray:16.18000031, 32.36000061;stroke-dashoffset:0;stroke-opacity:1;marker:none;color-rendering:auto;image-rendering:auto;shape-rendering:auto;text-rendering:auto;enable-background:accumulate"
       id="path4164"
       cx="178.53568"
       cy="56.952225"
       r="219.56561" /></g><g
     id="g5"><g
       id="g7"><path
         class="st0"
         d="m 100,94.8 c -0.2,-0.2 -0.3,-0.4 -0.3,-0.7 l 0,-16.8 c 0,-0.1 0,-0.2 0.1,-0.3 0.1,-0.1 0.2,-0.1 0.3,-0.1 l 1.4,0 c 0.1,0 0.2,0 0.3,0.1 0.1,0.1 0.1,0.2 0.1,0.3 l 0,15.8 6.6,0 c 0.1,0 0.2,0 0.3,0.1 0.1,0.1 0.1,0.2 0.1,0.3 l 0,1.3 c 0,0.1 0,0.2 -0.1,0.3 -0.1,0.1 -0.2,0.1 -0.3,0.1 l -7.8,0 C 100.5,95.1 100.2,95 100,94.8 Z"
         id="path9"
         inkscape:connector-curvature="0"
         style="fill:#0b3a42" /><path
         class="st0"
         d="m 114.1,94.7 c -0.9,-0.5 -1.6,-1.2 -2.1,-2.1 -0.5,-0.9 -0.8,-1.8 -0.8,-2.9 l 0,-4.1 c 0,-1 0.3,-2 0.8,-2.9 0.5,-0.9 1.2,-1.6 2.1,-2.1 0.9,-0.5 1.8,-0.8 2.9,-0.8 1.1,0 2,0.3 2.9,0.8 0.9,0.5 1.6,1.2 2.1,2.1 0.5,0.9 0.8,1.8 0.8,2.9 l 0,4.1 c 0,1 -0.3,2 -0.8,2.9 -0.5,0.9 -1.2,1.6 -2.1,2.1 -0.9,0.5 -1.8,0.8 -2.9,0.8 -1.1,0 -2,-0.3 -2.9,-0.8 z m 4.7,-1.7 c 0.6,-0.3 1,-0.8 1.3,-1.3 0.3,-0.6 0.5,-1.2 0.5,-1.8 l 0,-4.4 c 0,-0.7 -0.2,-1.3 -0.5,-1.8 -0.3,-0.5 -0.8,-1 -1.3,-1.3 -0.6,-0.3 -1.2,-0.5 -1.8,-0.5 -0.6,0 -1.3,0.2 -1.8,0.5 -0.5,0.3 -1,0.8 -1.3,1.3 -0.3,0.5 -0.5,1.2 -0.5,1.8 l 0,4.4 c 0,0.7 0.2,1.3 0.5,1.8 0.3,0.6 0.8,1 1.3,1.3 0.5,0.3 1.2,0.5 1.8,0.5 0.6,0 1.2,-0.2 1.8,-0.5 z"
         id="path11"
         inkscape:connector-curvature="0"
         style="fill:#0b3a42" /><path
         class="st0"
         d="m 129,94.7 c -0.9,-0.5 -1.6,-1.2 -2.1,-2.1 -0.5,-0.9 -0.8,-1.8 -0.8,-2.9 l 0,-4.1 c 0,-1 0.3,-2 0.8,-2.9 0.5,-0.9 1.2,-1.6 2.1,-2.1 0.9,-0.5 1.8,-0.8 2.9,-0.8 0.8,0 1.5,0.1 2.1,0.4 0.7,0.3 1.3,0.7 1.8,1.2 0.1,0.1 0.2,0.2 0.2,0.4 0,0.1 -0.1,0.3 -0.2,0.4 -0.2,0.2 -0.4,0.4 -0.6,0.6 -0.1,0.1 -0.3,0.2 -0.4,0.2 -0.2,0 -0.3,-0.1 -0.4,-0.2 -0.7,-0.6 -1.5,-1 -2.5,-1 -0.7,0 -1.3,0.2 -1.8,0.5 -0.5,0.3 -1,0.8 -1.3,1.3 -0.3,0.5 -0.5,1.2 -0.5,1.8 l 0,4.4 c 0,0.7 0.2,1.3 0.5,1.8 0.3,0.6 0.8,1 1.3,1.3 0.5,0.3 1.2,0.5 1.8,0.5 1,0 1.8,-0.3 2.5,-1 0.1,-0.1 0.3,-0.2 0.4,-0.2 0.1,0 0.3,0.1 0.4,0.2 0.2,0.2 0.4,0.4 0.6,0.6 0.1,0.1 0.2,0.2 0.2,0.4 0,0.1 -0.1,0.3 -0.2,0.4 -0.5,0.5 -1.1,0.9 -1.8,1.2 -0.7,0.3 -1.4,0.4 -2.1,0.4 -1,0 -2,-0.2 -2.9,-0.7 z"
         id="path13"
         inkscape:connector-curvature="0"
         style="fill:#0b3a42" /><path
         class="st0"
         d="m 139.9,94.3 c -0.9,-0.8 -1.3,-1.8 -1.3,-3 0,-1.2 0.4,-2.1 1.2,-2.9 0.8,-0.8 1.9,-1.2 3.3,-1.4 l 3.4,-0.5 c 0.5,-0.1 0.9,-0.2 1.1,-0.5 0.2,-0.3 0.3,-0.7 0.3,-1.2 l 0,-0.2 c 0,-0.8 -0.3,-1.5 -1,-2 -0.7,-0.5 -1.5,-0.8 -2.5,-0.8 -0.8,0 -1.4,0.2 -2,0.5 -0.6,0.3 -1,0.7 -1.3,1.3 -0.1,0.2 -0.3,0.3 -0.5,0.3 -0.1,0 -0.2,0 -0.3,-0.1 l -0.7,-0.5 c -0.2,-0.1 -0.2,-0.3 -0.2,-0.4 0,-0.1 0,-0.2 0.1,-0.3 0.5,-0.8 1.2,-1.5 2.1,-2 0.9,-0.5 1.9,-0.7 3.1,-0.7 1,0 2,0.2 2.8,0.6 0.8,0.4 1.5,0.9 1.9,1.7 0.4,0.7 0.7,1.5 0.7,2.5 l 0,10.1 c 0,0.1 0,0.2 -0.1,0.3 -0.1,0.1 -0.2,0.1 -0.3,0.1 l -1.1,0 c -0.1,0 -0.2,0 -0.3,-0.1 -0.1,-0.1 -0.1,-0.2 -0.1,-0.3 l 0,-1.8 c -0.5,0.8 -1.2,1.4 -2.1,1.8 -0.8,0.4 -1.8,0.7 -2.8,0.7 -1.5,-0.1 -2.6,-0.4 -3.4,-1.2 z m 5.8,-1.4 c 0.7,-0.5 1.2,-1 1.6,-1.7 0.4,-0.7 0.6,-1.4 0.6,-2 l 0,-1.1 c -0.4,0.1 -1.8,0.2 -4,0.6 l -0.7,0.1 c -1.7,0.3 -2.6,1.1 -2.6,2.5 0,0.7 0.3,1.3 0.8,1.7 0.5,0.4 1.2,0.7 2,0.7 0.8,-0.1 1.6,-0.3 2.3,-0.8 z"
         id="path15"
         inkscape:connector-curvature="0"
         style="fill:#0b3a42" /><path
         class="st0"
         d="m 155.4,94.8 c -0.2,-0.2 -0.3,-0.4 -0.3,-0.7 l 0,-17 -2.4,0 c -0.1,0 -0.2,0 -0.3,-0.1 -0.1,-0.1 -0.1,-0.2 -0.1,-0.3 l 0,-1.2 c 0,-0.1 0,-0.2 0.1,-0.3 0.1,-0.1 0.2,-0.1 0.3,-0.1 l 3.5,0 c 0.3,0 0.5,0.1 0.7,0.3 0.2,0.2 0.3,0.4 0.3,0.7 l 0,17 2.8,0 c 0.1,0 0.2,0 0.3,0.1 0.1,0.1 0.1,0.2 0.1,0.3 l 0,1.2 c 0,0.1 0,0.2 -0.1,0.3 -0.1,0.1 -0.2,0.1 -0.3,0.1 l -3.9,0 c -0.3,0 -0.5,-0.1 -0.7,-0.3 z"
         id="path17"
         inkscape:connector-curvature="0"
         style="fill:#0b3a42" /><path
         class="st0"
         d="m 173.2,94.6 c -1,-0.6 -1.7,-1.4 -2.3,-2.3 -0.6,-0.9 -0.8,-2 -0.8,-3.2 l 0,-6.1 c 0,-1.2 0.3,-2.2 0.8,-3.2 0.5,-1 1.3,-1.8 2.3,-2.3 1,-0.6 2,-0.9 3.1,-0.9 0.9,0 1.8,0.2 2.6,0.5 0.8,0.3 1.5,0.8 2.1,1.4 0.1,0.1 0.1,0.2 0.1,0.3 0,0.1 0,0.2 -0.1,0.3 -0.4,0.4 -0.6,0.7 -0.7,0.8 -0.1,0.1 -0.2,0.1 -0.4,0.1 -0.1,0 -0.3,-0.1 -0.4,-0.2 -0.9,-0.8 -1.9,-1.3 -3.2,-1.3 -0.8,0 -1.4,0.2 -2.1,0.6 -0.6,0.4 -1.1,0.9 -1.5,1.6 -0.4,0.7 -0.6,1.4 -0.6,2.2 l 0,6.1 c 0,0.8 0.2,1.5 0.6,2.2 0.4,0.7 0.9,1.2 1.5,1.6 0.6,0.4 1.3,0.6 2.1,0.6 1.3,0 2.4,-0.4 3.2,-1.3 0.1,-0.1 0.3,-0.2 0.4,-0.2 0.1,0 0.2,0 0.4,0.1 0.1,0.1 0.3,0.4 0.7,0.8 0.1,0.1 0.1,0.2 0.1,0.3 0,0.1 0,0.2 -0.1,0.3 -0.6,0.6 -1.3,1.1 -2.1,1.4 -0.8,0.3 -1.7,0.5 -2.6,0.5 -1.1,0.1 -2.2,-0.1 -3.1,-0.7 z"
         id="path19"
         inkscape:connector-curvature="0"
         style="fill:#0b3a42" /><path
         class="st0"
         d="m 185,95 c -0.1,-0.1 -0.1,-0.2 -0.1,-0.3 l 0,-19.1 c 0,-0.1 0,-0.2 0.1,-0.3 0.1,-0.1 0.2,-0.1 0.3,-0.1 l 1.3,0 c 0.1,0 0.2,0 0.3,0.1 0.1,0.1 0.1,0.2 0.1,0.3 l 0,6.5 c 0.5,-0.7 1,-1.3 1.8,-1.6 0.7,-0.4 1.5,-0.5 2.5,-0.5 1.5,0 2.7,0.5 3.6,1.4 0.9,0.9 1.4,2.1 1.4,3.6 l 0,9.9 c 0,0.1 0,0.2 -0.1,0.3 -0.1,0.1 -0.2,0.1 -0.3,0.1 l -1.3,0 c -0.1,0 -0.2,0 -0.3,-0.1 -0.1,-0.1 -0.1,-0.2 -0.1,-0.3 l 0,-9.5 c 0,-1.1 -0.3,-2 -0.9,-2.6 -0.6,-0.6 -1.4,-0.9 -2.4,-0.9 -1.2,0 -2.1,0.4 -2.8,1.2 -0.7,0.8 -1.1,1.8 -1.1,3.2 l 0,8.6 c 0,0.1 0,0.2 -0.1,0.3 -0.1,0.1 -0.2,0.1 -0.3,0.1 l -1.3,0 C 185.1,95.1 185,95.1 185,95 Z"
         id="path21"
         inkscape:connector-curvature="0"
         style="fill:#0b3a42" /><path
         class="st0"
         d="m 200.7,94.3 c -0.9,-0.8 -1.3,-1.8 -1.3,-3 0,-1.2 0.4,-2.1 1.2,-2.9 0.8,-0.8 1.9,-1.2 3.3,-1.4 l 3.4,-0.5 c 0.5,-0.1 0.9,-0.2 1.1,-0.5 0.2,-0.3 0.3,-0.7 0.3,-1.2 l 0,-0.2 c 0,-0.8 -0.3,-1.5 -1,-2 -0.7,-0.5 -1.5,-0.8 -2.5,-0.8 -0.8,0 -1.4,0.2 -2,0.5 -0.6,0.3 -1,0.7 -1.3,1.3 -0.1,0.2 -0.3,0.3 -0.5,0.3 -0.1,0 -0.2,0 -0.3,-0.1 l -0.7,-0.5 c -0.2,-0.1 -0.2,-0.3 -0.2,-0.4 0,-0.1 0,-0.2 0.1,-0.3 0.5,-0.8 1.2,-1.5 2.1,-2 0.9,-0.5 1.9,-0.7 3.1,-0.7 1,0 2,0.2 2.8,0.6 0.8,0.4 1.5,0.9 1.9,1.7 0.4,0.7 0.7,1.5 0.7,2.5 l 0,10.1 c 0,0.1 0,0.2 -0.1,0.3 -0.1,0.1 -0.2,0.1 -0.3,0.1 l -1.1,0 c -0.1,0 -0.2,0 -0.3,-0.1 C 209,95 209,94.9 209,94.8 l 0,-1.8 c -0.5,0.8 -1.2,1.4 -2.1,1.8 -0.8,0.4 -1.8,0.7 -2.8,0.7 -1.5,-0.1 -2.6,-0.4 -3.4,-1.2 z m 5.8,-1.4 c 0.7,-0.5 1.2,-1 1.6,-1.7 0.4,-0.7 0.6,-1.4 0.6,-2 l 0,-1.1 c -0.4,0.1 -1.8,0.2 -4,0.6 l -0.7,0.1 c -1.7,0.3 -2.6,1.1 -2.6,2.5 0,0.7 0.3,1.3 0.8,1.7 0.5,0.4 1.2,0.7 2,0.7 0.8,-0.1 1.6,-0.3 2.3,-0.8 z"
         id="path23"
         inkscape:connector-curvature="0"
         style="fill:#0b3a42" /><path
         class="st0"
         d="m 215.2,100.1 c -0.1,-0.1 -0.1,-0.2 -0.1,-0.3 l 0,-19.2 c 0,-0.1 0,-0.2 0.1,-0.3 0.1,-0.1 0.2,-0.1 0.3,-0.1 l 1.2,0 c 0.1,0 0.2,0 0.3,0.1 0.1,0.1 0.1,0.2 0.1,0.3 l 0,1.2 c 0.5,-0.6 1.1,-1.1 1.8,-1.4 0.7,-0.3 1.4,-0.5 2.2,-0.5 1,0 1.9,0.2 2.8,0.7 0.8,0.5 1.5,1.2 2,2 0.5,0.8 0.7,1.8 0.7,2.8 l 0,4.6 c 0,1 -0.2,1.9 -0.7,2.8 -0.5,0.9 -1.2,1.5 -2,2 -0.8,0.5 -1.8,0.7 -2.8,0.7 -0.7,0 -1.4,-0.1 -2.1,-0.4 -0.7,-0.3 -1.3,-0.6 -1.8,-1.1 l 0,5.8 c 0,0.1 0,0.2 -0.1,0.3 -0.1,0.1 -0.2,0.1 -0.3,0.1 l -1.3,0 c -0.1,0 -0.2,-0.1 -0.3,-0.1 z m 7.5,-7.1 c 0.6,-0.3 1,-0.8 1.3,-1.3 0.3,-0.6 0.5,-1.2 0.5,-1.8 l 0,-4.4 c 0,-0.7 -0.2,-1.3 -0.5,-1.8 -0.3,-0.5 -0.8,-1 -1.3,-1.3 -0.5,-0.3 -1.2,-0.5 -1.8,-0.5 -0.6,0 -1.3,0.2 -1.8,0.5 -0.6,0.3 -1,0.8 -1.3,1.3 -0.3,0.6 -0.5,1.2 -0.5,1.8 l 0,4.4 c 0,0.7 0.2,1.3 0.5,1.8 0.3,0.6 0.8,1 1.3,1.3 0.6,0.3 1.2,0.5 1.8,0.5 0.6,0 1.2,-0.2 1.8,-0.5 z"
         id="path25"
         inkscape:connector-curvature="0"
         style="fill:#0b3a42" /><path
         class="st0"
         d="m 232.2,94 c -0.7,-0.8 -1.1,-1.7 -1.1,-2.9 l 0,-8.9 -1.7,0 c -0.1,0 -0.2,0 -0.3,-0.1 C 229,82 229,81.9 229,81.8 l 0,-1.2 c 0,-0.1 0,-0.2 0.1,-0.3 0.1,-0.1 0.2,-0.1 0.3,-0.1 l 1.7,0 0,-2.8 c 0,-0.1 0,-0.2 0.1,-0.3 0.1,-0.1 0.2,-0.1 0.3,-0.1 l 1.3,0 c 0.1,0 0.2,0 0.3,0.1 0.1,0.1 0.1,0.2 0.1,0.3 l 0,2.8 4.6,0 c 0.1,0 0.2,0 0.3,0.1 0.1,0.1 0.1,0.2 0.1,0.3 l 0,1.2 c 0,0.1 0,0.2 -0.1,0.3 -0.1,0.1 -0.2,0.1 -0.3,0.1 l -4.6,0 0,8.7 c 0,0.7 0.2,1.2 0.6,1.6 0.4,0.4 0.9,0.6 1.6,0.6 l 2.4,0 c 0.1,0 0.2,0 0.3,0.1 0.1,0.1 0.1,0.2 0.1,0.3 l 0,1.2 c 0,0.1 0,0.2 -0.1,0.3 -0.1,0.1 -0.2,0.1 -0.3,0.1 l -2.6,0 c -1.3,0 -2.3,-0.4 -3,-1.1 z"
         id="path27"
         inkscape:connector-curvature="0"
         style="fill:#0b3a42" /><path
         class="st0"
         d="m 243.7,94.3 c -0.9,-0.5 -1.6,-1.2 -2.1,-2.1 -0.5,-0.9 -0.8,-1.8 -0.8,-2.9 l 0,-3.7 c 0,-1 0.3,-2 0.8,-2.9 0.5,-0.9 1.2,-1.6 2.1,-2.1 0.9,-0.5 1.8,-0.8 2.9,-0.8 1.1,0 2,0.3 2.9,0.8 0.9,0.5 1.6,1.2 2.1,2.1 0.5,0.9 0.8,1.8 0.8,2.9 l 0,1.8 c 0,0.3 -0.1,0.5 -0.3,0.7 -0.2,0.2 -0.4,0.3 -0.7,0.3 l -8.4,0 0,1.2 c 0,0.7 0.2,1.3 0.5,1.8 0.3,0.6 0.8,1 1.3,1.3 0.5,0.3 1.2,0.5 1.8,0.5 l 3.8,0 c 0.1,0 0.2,0 0.3,0.1 0.1,0.1 0.1,0.2 0.1,0.3 l 0,1.2 c 0,0.1 0,0.2 -0.1,0.3 -0.1,0.1 -0.2,0.1 -0.3,0.1 l -3.8,0 c -1.1,-0.1 -2,-0.3 -2.9,-0.9 z m 6.5,-7.8 0,-1 c 0,-0.7 -0.2,-1.3 -0.5,-1.8 -0.3,-0.5 -0.8,-1 -1.3,-1.3 -0.6,-0.3 -1.2,-0.5 -1.8,-0.5 -0.6,0 -1.3,0.2 -1.8,0.5 -0.5,0.3 -1,0.8 -1.3,1.3 -0.3,0.5 -0.5,1.2 -0.5,1.8 l 0,1 7.2,0 z"
         id="path29"
         inkscape:connector-curvature="0"
         style="fill:#0b3a42" /><path
         class="st0"
         d="M 255.1,95 C 255,94.9 255,94.8 255,94.7 l 0,-1.2 c 0,-0.1 0,-0.2 0.1,-0.3 0.1,-0.1 0.2,-0.1 0.3,-0.1 l 2.2,0 0,-11 -2.2,0 c -0.1,0 -0.2,0 -0.3,-0.1 C 255,81.9 255,81.8 255,81.7 l 0,-1.1 c 0,-0.1 0,-0.2 0.1,-0.3 0.1,-0.1 0.2,-0.1 0.3,-0.1 l 3.3,0 c 0.3,0 0.5,0.1 0.7,0.3 0.2,0.2 0.3,0.4 0.3,0.7 l 0,1.3 1.5,-1.2 c 0.6,-0.5 1.1,-0.8 1.5,-1 0.4,-0.2 0.8,-0.2 1.2,-0.2 l 0.8,0 c 0.1,0 0.2,0 0.3,0.1 0.1,0.1 0.1,0.2 0.1,0.3 l 0,1.3 c 0,0.1 0,0.2 -0.1,0.3 -0.1,0.1 -0.2,0.1 -0.3,0.1 l -0.6,0 c -0.4,0 -0.8,0.1 -1.2,0.3 -0.4,0.2 -1,0.6 -1.7,1.2 l -1.5,1.2 0,8.3 3,0 c 0.1,0 0.2,0 0.3,0.1 0.1,0.1 0.1,0.2 0.1,0.3 l 0,1.2 c 0,0.1 0,0.2 -0.1,0.3 -0.1,0.1 -0.2,0.1 -0.3,0.1 l -7.3,0 c -0.2,-0.1 -0.3,-0.1 -0.3,-0.2 z"
         id="path31"
         inkscape:connector-curvature="0"
         style="fill:#0b3a42" /></g><g
       id="g33"><path
         class="st1"
         d="M 105.3,63.4 C 102.9,62 101,60.1 99.6,57.7 98.2,55.3 97.5,52.6 97.5,49.8 l 0,-12.8 c 0,-2.9 0.7,-5.5 2.1,-7.9 1.4,-2.4 3.3,-4.3 5.7,-5.7 2.4,-1.4 5.1,-2.1 7.9,-2.1 2.9,0 5.5,0.7 7.9,2.1 2.4,1.4 4.3,3.3 5.7,5.7 1.4,2.4 2.1,5.1 2.1,7.9 l 0,12.7 c 0,2.9 -0.7,5.5 -2.1,7.9 -1.4,2.4 -3.3,4.3 -5.7,5.7 -2.4,1.4 -5.1,2.1 -7.9,2.1 -2.9,0.1 -5.5,-0.6 -7.9,-2 m 12.1,-6.1 c 1.3,-0.8 2.3,-1.9 3.1,-3.2 0.8,-1.4 1.2,-2.8 1.2,-4.4 l 0,-12.7 c 0,-1.6 -0.4,-3 -1.2,-4.4 -0.8,-1.4 -1.8,-2.4 -3.1,-3.2 -1.3,-0.8 -2.7,-1.2 -4.2,-1.2 -1.5,0 -2.9,0.4 -4.2,1.2 -1.3,0.8 -2.3,1.9 -3.1,3.2 -0.8,1.4 -1.2,2.8 -1.2,4.4 l 0,12.7 c 0,1.6 0.4,3 1.2,4.4 0.8,1.4 1.8,2.4 3.1,3.2 1.3,0.8 2.7,1.2 4.2,1.2 1.5,0 2.9,-0.4 4.2,-1.2"
         id="path35"
         inkscape:connector-curvature="0"
         style="fill:#4db05b" /><path
         class="st1"
         d="m 140.5,64.4 c -2.1,-0.7 -4,-1.7 -5.8,-2.9 -0.2,-0.1 -0.3,-0.3 -0.4,-0.6 -0.1,-0.3 -0.1,-0.6 0.1,-0.8 l 2.1,-3.8 c 0.2,-0.5 0.6,-0.7 1.1,-0.7 0.3,0 0.6,0.1 0.9,0.2 3,1.9 5.7,2.8 8.3,2.8 2.1,0 3.8,-0.5 5,-1.5 1.2,-1 1.8,-2.3 1.8,-4 0,-1.1 -0.3,-2 -0.9,-2.7 -0.6,-0.7 -1.4,-1.4 -2.4,-1.9 -1,-0.5 -2.4,-1.2 -4.3,-1.9 l -1.7,-0.7 c -2.7,-1.2 -5,-2.6 -6.8,-4.4 -1.8,-1.8 -2.8,-4.4 -2.8,-7.9 0,-2.4 0.5,-4.6 1.6,-6.5 1.1,-1.9 2.6,-3.3 4.6,-4.4 1.9,-1 4.2,-1.6 6.7,-1.6 2.1,0 4.2,0.4 6.3,1 2.1,0.7 4,1.7 5.6,2.9 0.2,0.1 0.3,0.3 0.4,0.6 0.1,0.3 0.1,0.6 -0.1,0.8 l -2,3.8 c -0.2,0.5 -0.6,0.7 -1.1,0.7 -0.3,0 -0.6,-0.1 -0.9,-0.2 -1.5,-1 -3,-1.7 -4.4,-2.2 -1.4,-0.4 -2.7,-0.7 -3.8,-0.7 -1.8,0 -3.2,0.5 -4.2,1.5 -1,1 -1.5,2.2 -1.5,3.7 0,1.6 0.6,2.8 1.7,3.9 1.1,1 2.9,2 5.4,3.1 0.4,0.1 1.7,0.7 4.1,1.6 2.4,1 4.2,2.4 5.6,4.3 1.4,1.9 2.1,4.1 2.1,6.6 0,2.5 -0.6,4.7 -1.8,6.6 -1.2,1.9 -2.8,3.4 -4.9,4.5 -2.1,1.1 -4.5,1.6 -7.3,1.6 -2.1,0.2 -4.2,-0.1 -6.3,-0.8"
         id="path37"
         inkscape:connector-curvature="0"
         style="fill:#4db05b" /><path
         class="st2"
         d="m 174.2,63.4 c -2.4,-1.4 -4.3,-3.3 -5.7,-5.7 -1.4,-2.4 -2.1,-5.1 -2.1,-7.9 l 0,-12.8 c 0,-2.9 0.7,-5.5 2.1,-7.9 1.4,-2.4 3.3,-4.3 5.7,-5.7 2.4,-1.4 5,-2.1 7.9,-2.1 2.5,0 4.8,0.5 7,1.3 2.1,0.9 4,2.2 5.5,3.9 0.2,0.3 0.4,0.6 0.4,1 0,0.4 -0.2,0.8 -0.5,1.2 l -2.6,2.7 c -0.3,0.3 -0.6,0.5 -1,0.5 -0.4,0 -0.8,-0.2 -1.1,-0.5 -2,-2.1 -4.5,-3.2 -7.6,-3.2 -1.5,0 -2.9,0.4 -4.2,1.2 -1.3,0.8 -2.4,1.9 -3.1,3.2 -0.8,1.4 -1.2,2.8 -1.2,4.4 l 0,12.7 c 0,1.6 0.4,3 1.2,4.4 0.8,1.4 1.8,2.4 3.1,3.2 1.3,0.8 2.7,1.2 4.2,1.2 1.5,0 2.9,-0.4 4.2,-1.1 1.3,-0.8 2.3,-1.8 3.1,-3.1 0.8,-1.3 1.1,-2.8 1.1,-4.3 l 0,-3 -8,0 c -0.4,0 -0.7,-0.1 -0.9,-0.4 -0.2,-0.2 -0.4,-0.5 -0.4,-0.9 l 0,-4.3 c 0,-0.4 0.1,-0.7 0.4,-0.9 0.2,-0.2 0.5,-0.4 0.9,-0.4 l 12.6,0 c 0.7,0 1.3,0.2 1.8,0.7 0.5,0.5 0.7,1.1 0.7,1.8 l 0,6.9 c 0,2.9 -0.7,5.5 -2.1,7.9 -1.4,2.4 -3.3,4.3 -5.7,5.7 -2.4,1.4 -5,2.1 -7.8,2.1 -2.9,0.3 -5.5,-0.4 -7.9,-1.8"
         id="path39"
         inkscape:connector-curvature="0"
         style="fill:#003a40" /><path
         class="st2"
         d="m 210.8,62.8 c -2.2,-1.3 -3.9,-3 -5.1,-5.2 -1.3,-2.2 -1.9,-4.6 -1.9,-7.2 l 0,-6.4 c 0,-2.6 0.6,-5 1.9,-7.2 1.3,-2.2 3,-3.9 5.1,-5.2 2.2,-1.3 4.5,-1.9 7.1,-1.9 2.6,0 4.9,0.6 7.1,1.9 2.2,1.3 3.9,3 5.1,5.2 1.3,2.2 1.9,4.6 1.9,7.2 l 0,4 c 0,0.7 -0.3,1.3 -0.7,1.8 -0.5,0.5 -1.1,0.7 -1.8,0.7 l -18.6,0 0,0.3 c 0,2 0.7,3.6 2.1,5 1.4,1.4 3,2.1 5,2.1 l 9.5,0 c 0.4,0 0.7,0.1 0.9,0.4 0.2,0.2 0.4,0.5 0.4,0.9 l 0,4.3 c 0,0.4 -0.1,0.7 -0.4,0.9 -0.2,0.2 -0.5,0.4 -0.9,0.4 l -9.5,0 c -2.6,-0.1 -5,-0.7 -7.2,-2 m 14.2,-18.7 0,-0.5 c 0,-2 -0.7,-3.6 -2.1,-5 -1.4,-1.4 -3,-2.1 -5,-2.1 -1.9,0 -3.6,0.7 -5,2.1 -1.4,1.4 -2.1,3 -2.1,5 l 0,0.5 14.2,0 z"
         id="path41"
         inkscape:connector-curvature="0"
         style="fill:#003a40" /><path
         class="st2"
         d="m 244.5,63.6 c -2.2,-1.3 -3.9,-3 -5.1,-5.1 -1.3,-2.2 -1.9,-4.5 -1.9,-7 l 0,-7.8 c 0,-2.5 0.6,-4.8 1.9,-7 1.3,-2.1 3,-3.9 5.1,-5.1 2.2,-1.3 4.5,-1.9 7.1,-1.9 2.6,0 4.9,0.6 7.1,1.9 2.2,1.3 3.9,3 5.1,5.1 1.3,2.2 1.9,4.5 1.9,7 l 0,7.8 c 0,2.5 -0.6,4.8 -1.9,7 -1.3,2.2 -3,3.9 -5.1,5.1 -2.2,1.3 -4.5,1.9 -7.1,1.9 -2.5,0 -4.9,-0.6 -7.1,-1.9 m 12.1,-7.1 c 1.4,-1.4 2.1,-3 2.1,-5 l 0,-7.8 c 0,-2 -0.7,-3.6 -2.1,-5 -1.4,-1.4 -3,-2.1 -5,-2.1 -1.9,0 -3.6,0.7 -5,2.1 -1.4,1.4 -2.1,3 -2.1,5 l 0,7.8 c 0,2 0.7,3.6 2.1,5 1.4,1.4 3,2.1 5,2.1 2,0 3.6,-0.7 5,-2.1"
         id="path43"
         inkscape:connector-curvature="0"
         style="fill:#003a40" /><path
         class="st1"
         d="m 41.2,17.4 0,-8.7 0,-8.7 -5.4,9.5 C 21,12.8 9.8,25.6 8.8,41.2 l 8.7,0 c 1,-12.6 11,-22.7 23.7,-23.8"
         id="path45"
         inkscape:connector-curvature="0"
         style="fill:#4db05b" /><path
         class="st2"
         d="m 17.4,45.5 -8.7,0 -8.7,0 9.5,5.5 c 3.3,14.8 16.1,26 31.7,27 l 0,-8.7 C 28.5,68.2 18.5,58.2 17.4,45.5"
         id="path47"
         inkscape:connector-curvature="0"
         style="fill:#003a40" /><path
         class="st2"
         d="m 69.3,41.2 8.7,0 8.7,0 -9.5,-5.4 C 73.9,21 61.1,9.8 45.5,8.8 l 0,8.7 c 12.6,1 22.7,11 23.8,23.7"
         id="path49"
         inkscape:connector-curvature="0"
         style="fill:#003a40" /><path
         class="st1"
         d="m 45.5,69.3 0,8.7 0,8.7 5.4,-9.5 c 14.8,-3.3 26,-16.1 27,-31.7 l -8.7,0 c -1,12.6 -11.1,22.7 -23.7,23.8"
         id="path51"
         inkscape:connector-curvature="0"
         style="fill:#4db05b" /><path
         class="st2"
         d="M 46,40.7 29.9,29.9 40.7,46 56.8,56.7 46,40.7 Z m -2.7,4.5 c -1,0 -1.9,-0.8 -1.9,-1.9 0,-1 0.8,-1.9 1.9,-1.9 1,0 1.9,0.8 1.9,1.9 0,1.1 -0.8,1.9 -1.9,1.9"
         id="path53"
         inkscape:connector-curvature="0"
         style="fill:#003a40" /><polygon
         class="st1"
         points="37.1,46.1 29.9,56.8 40.6,49.6 43.3,66.1 46.1,49.6 40.7,46 37.1,40.6 20.6,43.4 "
         id="polygon55"
         style="fill:#4db05b" /><polygon
         class="st1"
         points="43.3,20.6 40.6,37.1 46,40.7 49.6,46.1 66.1,43.3 49.6,40.6 56.8,29.9 46.1,37.1 "
         id="polygon57"
         style="fill:#4db05b" /></g><g
       id="g59"><text
         xml:space="preserve"
         style="font-style:normal;font-weight:normal;font-size:40px;line-height:125%;font-family:sans-serif;letter-spacing:0px;word-spacing:0px;fill:#003a40;fill-opacity:1;stroke:none;stroke-width:1px;stroke-linecap:butt;stroke-linejoin:miter;stroke-opacity:1"
         x="290.47726"
         y="65.269104"
         id="text4199"
         sodipodi:linespacing="125%"><tspan
           sodipodi:role="line"
           id="tspan4201"
           x="290.47726"
           y="65.269104"
           style="font-style:normal;font-variant:normal;font-weight:bold;font-stretch:normal;font-size:60px;font-family:'Miriam Libre';-inkscape-font-specification:'Miriam Libre Bold';fill:#003a40;fill-opacity:1">FR</tspan></text>
</g><circle
       class="st1"
       cx="280.89999"
       cy="43.400002"
       r="4.1999998"
       id="circle65"
       style="fill:#4db05b" /></g></svg>