<?xml version="1.0" encoding="UTF-8" standalone="no"?>
<!-- Created with Inkscape (http://www.inkscape.org/) -->
<svg
   xmlns:dc="http://purl.org/dc/elements/1.1/"
   xmlns:cc="http://creativecommons.org/ns#"
   xmlns:rdf="http://www.w3.org/1999/02/22-rdf-syntax-ns#"
   xmlns:svg="http://www.w3.org/2000/svg"
   xmlns="http://www.w3.org/2000/svg"
   xmlns:sodipodi="http://sodipodi.sourceforge.net/DTD/sodipodi-0.dtd"
   xmlns:inkscape="http://www.inkscape.org/namespaces/inkscape"
   id="svg2"
   sodipodi:version="0.32"
   inkscape:version="0.46"
   width="135"
   height="135"
   xml:space="preserve"
   sodipodi:docname="OSGeo Button-FIN.svg"
   inkscape:output_extension="org.inkscape.output.svg.inkscape"><metadata
     id="metadata7"><rdf:RDF><cc:Work
         rdf:about=""><dc:format>image/svg+xml</dc:format><dc:type
           rdf:resource="http://purl.org/dc/dcmitype/StillImage" /></cc:Work></rdf:RDF></metadata><defs
     id="defs5"><inkscape:perspective
       sodipodi:type="inkscape:persp3d"
       inkscape:vp_x="0 : 526.18109 : 1"
       inkscape:vp_y="0 : 1000 : 0"
       inkscape:vp_z="744.09448 : 526.18109 : 1"
       inkscape:persp3d-origin="372.04724 : 350.78739 : 1"
       id="perspective9" /><clipPath
       clipPathUnits="userSpaceOnUse"
       id="clipPath17"><path
         d="M 0,108 L 108,108 L 108,0 L 0,0 L 0,108 z"
         id="path19" /></clipPath><clipPath
       clipPathUnits="userSpaceOnUse"
       id="clipPath25"><path
         d="M 0,108 L 108,108 L 108,0 L 0,0 L 0,108 z"
         id="path27" /></clipPath><clipPath
       clipPathUnits="userSpaceOnUse"
       id="clipPath45"><path
         d="M 0,108 L 108,108 L 108,0 L 0,0 L 0,108 z"
         id="path47" /></clipPath></defs><sodipodi:namedview
     inkscape:window-height="713"
     inkscape:window-width="640"
     inkscape:pageshadow="2"
     inkscape:pageopacity="0.0"
     guidetolerance="10.0"
     gridtolerance="10.0"
     objecttolerance="10.0"
     borderopacity="1.0"
     bordercolor="#666666"
     pagecolor="#ffffff"
     id="base"
     showgrid="false"
     inkscape:zoom="3.6888889"
     inkscape:cx="67.5"
     inkscape:cy="67.5"
     inkscape:window-x="0"
     inkscape:window-y="22"
     inkscape:current-layer="g11" /><g
     id="g11"
     inkscape:groupmode="layer"
     inkscape:label="OSGeo Button-FIN"
     transform="matrix(1.25,0,0,-1.25,0,135)"><g
       id="g13"><g
         id="g15"
         clip-path="url(#clipPath17)"><g
           id="g21"><g
             id="g23" /><g
             id="g29"><g
               clip-path="url(#clipPath25)"
               opacity="0.190002"
               id="g31"><g
                 transform="translate(54,107.75)"
                 id="g33"><path
                   d="M 0,0 C -29.638,0 -53.75,-24.112 -53.75,-53.75 C -53.75,-83.388 -29.638,-107.5 0,-107.5 C 29.638,-107.5 53.75,-83.388 53.75,-53.75 C 53.75,-24.112 29.638,0 0,0 M 0,0.25 C 29.823,0.25 54,-23.927 54,-53.75 C 54,-83.573 29.823,-107.75 0,-107.75 C -29.823,-107.75 -54,-83.573 -54,-53.75 C -54,-23.927 -29.823,0.25 0,0.25"
                   style="fill:#ec008c;fill-opacity:1;fill-rule:nonzero;stroke:none"
                   id="path35" /></g></g></g></g></g></g><g
       id="g37"
       transform="translate(58.5,53.5273)"><path
         d="M 0,0 L 12.115,3.894 L 1.082,-2.292 L 7.403,-6.585 L 0.209,-4.685 L 4.234,-17.19 L -2.136,-5.743 L -5.987,-12.143 L -4.543,-4.781 L -16.583,-8.8 L -5.513,-2.433 L -12.476,1.529 L -4.543,-0.119 L -9,11.661 L -2.297,0.843 L 1.629,7.674 L 0,0 z"
         style="fill:#46ae33;fill-opacity:1;fill-rule:evenodd;stroke:none"
         id="path39" /></g><g
       id="g41"><g
         id="g43"
         clip-path="url(#clipPath45)"><g
           id="g49"
           transform="translate(56.2979,83.5215)"><path
             d="M 0,0 C 12.289,0 22.978,-6.823 28.506,-16.882 L 30.807,-16.545 C 25.021,-5.425 13.404,2.176 0,2.176 C -3.748,2.176 -7.355,1.576 -10.74,0.477 L -9.391,-1.385 C -6.418,-0.489 -3.266,0 0,0"
             style="fill:#46ae33;fill-opacity:1;fill-rule:nonzero;stroke:none"
             id="path51" /></g><g
           id="g53"
           transform="translate(71.3418,17.4883)"><path
             d="M 0,0 L -19.493,22.79 L -48.865,18.499 L -26.655,37.466 L -26.352,37.726 L -33.971,75.258 L -11.274,44.169 L 18.128,48.463 L -4.292,29.381 L 0,0 z M -15.043,1.029 C -27.332,1.029 -38.022,7.849 -43.547,17.906 L -32.214,19.563 C -28.239,14.544 -22.095,11.322 -15.192,11.322 C -14.005,11.322 -12.842,11.418 -11.708,11.603 L -4.238,2.872 C -7.62,1.678 -11.255,1.029 -15.043,1.029 M -32.449,60.973 L -30,48.9 C -34.246,44.938 -36.905,39.297 -36.905,33.029 C -36.905,32.214 -36.854,31.406 -36.767,30.611 L -45.846,22.857 L -45.768,22.929 C -46.916,26.251 -47.546,29.815 -47.546,33.529 C -47.546,45.076 -41.521,55.208 -32.449,60.973 M 6.516,33.029 C 6.516,34.229 6.414,35.406 6.228,36.553 L 22.591,50.482 L 1.12,47.349 C -2.86,51.876 -8.691,54.741 -15.192,54.741 C -15.867,54.741 -16.535,54.706 -17.192,54.647 L -36.604,81.452 L -32.913,63.26 C -43.008,57.187 -49.764,46.127 -49.764,33.487 C -49.764,29.225 -48.993,25.148 -47.586,21.375 L -53.317,16.481 L -45.893,17.564 C -40.121,6.403 -28.477,-1.233 -15.043,-1.233 C -10.685,-1.233 -6.521,-0.419 -2.679,1.047 L 2.019,-4.443 L -1.05,16.567 C 3.577,20.55 6.516,26.445 6.516,33.029"
             style="fill:#97d550;fill-opacity:1;fill-rule:nonzero;stroke:none"
             id="path55" /></g><g
           id="g57"
           transform="translate(25.4478,35.0527)"><path
             d="M 0,0 C 5.773,-11.163 17.416,-18.798 30.85,-18.798 C 35.208,-18.798 39.373,-17.985 43.214,-16.518 L 41.654,-14.692 C 38.273,-15.887 34.642,-16.535 30.85,-16.535 C 18.563,-16.535 7.871,-9.716 2.346,0.342 L 0,0 z M 12.98,45.697 C 2.886,39.623 -3.869,28.563 -3.869,15.923 C -3.869,11.662 -3.097,7.58 -1.693,3.811 L 0.127,5.36 C -1.02,8.687 -1.654,12.251 -1.654,15.965 C -1.654,27.512 4.372,37.644 13.443,43.408 L 12.98,45.697 z"
             style="fill:#46ae33;fill-opacity:1;fill-rule:nonzero;stroke:none"
             id="path59" /></g><g
           id="g61"
           transform="translate(21.5869,67.8066)"><path
             d="M 0,0 L -0.51,-1.305 L -3.52,-1.135 C -3.878,-1.117 -4.365,-1.059 -4.767,-1.013 L -4.771,-1.022 C -4.44,-1.251 -4.072,-1.528 -3.762,-1.782 L -1.438,-3.676 L -1.918,-4.904 L -7.513,-4.498 L -7.063,-3.346 L -3.926,-3.588 C -3.526,-3.611 -3.17,-3.662 -2.836,-3.715 L -2.833,-3.706 C -3.113,-3.518 -3.44,-3.28 -3.71,-3.063 L -6.166,-1.052 L -5.719,0.09 L -2.585,-0.073 C -2.273,-0.096 -1.848,-0.14 -1.458,-0.193 L -1.455,-0.183 C -1.742,0.018 -2.1,0.29 -2.379,0.51 L -4.807,2.422 L -4.383,3.507 L 0,0 z"
             style="fill:#46ae33;fill-opacity:1;fill-rule:nonzero;stroke:none"
             id="path63" /></g><g
           id="g65"
           transform="translate(26.4316,75.3525)"><path
             d="M 0,0 L -0.82,-1.135 L -3.689,-0.219 C -4.03,-0.112 -4.487,0.065 -4.864,0.21 L -4.87,0.202 C -4.607,-0.102 -4.321,-0.461 -4.084,-0.785 L -2.309,-3.197 L -3.08,-4.265 L -8.391,-2.475 L -7.667,-1.473 L -4.694,-2.49 C -4.313,-2.613 -3.98,-2.751 -3.671,-2.886 L -3.666,-2.877 C -3.89,-2.626 -4.147,-2.313 -4.354,-2.037 L -6.227,0.521 L -5.51,1.515 L -2.519,0.574 C -2.223,0.475 -1.822,0.325 -1.459,0.177 L -1.454,0.186 C -1.681,0.451 -1.959,0.805 -2.174,1.087 L -4.045,3.543 L -3.364,4.486 L 0,0 z"
             style="fill:#46ae33;fill-opacity:1;fill-rule:nonzero;stroke:none"
             id="path67" /></g><g
           id="g69"
           transform="translate(33.0513,81.3896)"><path
             d="M 0,0 L -1.083,-0.888 L -3.624,0.732 C -3.927,0.923 -4.323,1.211 -4.65,1.448 L -4.659,1.442 C -4.482,1.08 -4.297,0.659 -4.151,0.286 L -3.051,-2.501 L -4.07,-3.337 L -8.749,-0.247 L -7.793,0.537 L -5.177,-1.208 C -4.84,-1.424 -4.554,-1.643 -4.289,-1.852 L -4.281,-1.845 C -4.435,-1.544 -4.603,-1.177 -4.732,-0.856 L -5.889,2.098 L -4.941,2.875 L -2.289,1.2 C -2.028,1.028 -1.679,0.781 -1.366,0.545 L -1.358,0.552 C -1.51,0.867 -1.688,1.28 -1.824,1.608 L -3.006,4.462 L -2.105,5.2 L 0,0 z"
             style="fill:#46ae33;fill-opacity:1;fill-rule:nonzero;stroke:none"
             id="path71" /></g><g
           id="g73"
           transform="translate(35.4272,83.5684)"><path
             d="M 0,0 C 0.211,-0.342 0.103,-0.796 -0.239,-1.006 C -0.582,-1.217 -1.035,-1.109 -1.246,-0.767 C -1.451,-0.434 -1.343,0.02 -1.001,0.23 C -0.659,0.441 -0.205,0.333 0,0"
             style="fill:#46ae33;fill-opacity:1;fill-rule:nonzero;stroke:none"
             id="path75" /></g><g
           id="g77"
           transform="translate(47.4849,92.5439)"><path
             d="M 0,0 C -0.791,-0.189 -1.338,-0.955 -1.069,-2.076 C -0.833,-3.067 -0.225,-3.748 0.796,-3.503 C 1.627,-3.304 2.173,-2.581 1.896,-1.419 C 1.618,-0.258 0.891,0.213 0,0 M 0.963,-4.468 C -0.728,-4.873 -1.828,-3.993 -2.202,-2.432 C -2.611,-0.72 -1.597,0.613 -0.155,0.958 C 1.356,1.319 2.618,0.69 3.04,-1.072 C 3.452,-2.793 2.455,-4.111 0.963,-4.468"
             style="fill:#46ae33;fill-opacity:1;fill-rule:nonzero;stroke:none"
             id="path79" /></g><g
           id="g81"
           transform="translate(53.3472,88.9321)"><path
             d="M 0,0 C -0.369,-0.035 -0.806,-0.014 -1.11,0.03 L -1.162,1.029 C -0.843,0.935 -0.415,0.892 0.037,0.934 C 0.539,0.981 1,1.252 0.951,1.775 C 0.862,2.718 -1.44,2.006 -1.603,3.739 C -1.697,4.744 -0.979,5.483 0.425,5.615 C 0.733,5.644 1.147,5.642 1.449,5.618 L 1.497,4.671 C 1.201,4.736 0.774,4.758 0.467,4.729 C -0.21,4.666 -0.482,4.372 -0.445,3.972 C -0.359,3.059 1.982,3.682 2.139,2.011 C 2.241,0.924 1.364,0.127 0,0"
             style="fill:#46ae33;fill-opacity:1;fill-rule:nonzero;stroke:none"
             id="path83" /></g><g
           id="g85"
           transform="translate(59.375,89.0869)"><path
             d="M 0,0 C -1.604,0.097 -2.712,1.073 -2.605,2.821 C -2.508,4.426 -1.32,5.613 0.541,5.5 C 1.106,5.465 1.657,5.349 2.202,5.151 L 1.948,4.196 C 1.486,4.41 1.009,4.542 0.495,4.574 C -0.503,4.634 -1.343,4.056 -1.417,2.842 C -1.486,1.701 -0.835,1.031 0.162,0.971 C 0.44,0.954 0.72,0.978 0.95,1.026 L 1.06,2.826 L 2.17,2.758 L 2.018,0.238 C 1.386,0.04 0.73,-0.044 0,0"
             style="fill:#46ae33;fill-opacity:1;fill-rule:nonzero;stroke:none"
             id="path87" /></g><g
           id="g89"
           transform="translate(63.0801,88.7476)"><path
             d="M 0,0 L 1.19,5.221 L 4.263,4.521 L 4.068,3.667 L 2.08,4.121 L 1.79,2.845 L 3.688,2.413 L 3.5,1.589 L 1.603,2.022 L 1.281,0.616 L 3.27,0.163 L 3.073,-0.7 L 0,0 z"
             style="fill:#46ae33;fill-opacity:1;fill-rule:nonzero;stroke:none"
             id="path91" /></g><g
           id="g93"
           transform="translate(71.4131,90.9199)"><path
             d="M 0,0 C -0.754,0.309 -1.646,0.006 -2.084,-1.062 C -2.471,-2.006 -2.374,-2.914 -1.401,-3.313 C -0.61,-3.637 0.257,-3.369 0.71,-2.262 C 1.163,-1.156 0.849,-0.348 0,0 M -1.83,-4.195 C -3.441,-3.535 -3.821,-2.177 -3.212,-0.689 C -2.544,0.941 -0.939,1.432 0.434,0.869 C 1.874,0.279 2.531,-0.97 1.844,-2.648 C 1.172,-4.289 -0.409,-4.777 -1.83,-4.195"
             style="fill:#46ae33;fill-opacity:1;fill-rule:nonzero;stroke:none"
             id="path95" /></g><g
           id="g97"
           transform="translate(74.8408,84.8984)"><path
             d="M 0,0 C -0.199,-0.348 -0.649,-0.47 -0.997,-0.27 C -1.346,-0.07 -1.467,0.38 -1.268,0.728 C -1.072,1.067 -0.623,1.189 -0.274,0.989 C 0.073,0.789 0.195,0.339 0,0"
             style="fill:#46ae33;fill-opacity:1;fill-rule:nonzero;stroke:none"
             id="path99" /></g><g
           id="g101"
           transform="translate(80.4971,85.7197)"><path
             d="M 0,0 C -0.651,0.488 -1.591,0.42 -2.282,-0.502 C -2.895,-1.318 -3.03,-2.221 -2.19,-2.851 C -1.506,-3.364 -0.6,-3.323 0.117,-2.367 C 0.834,-1.411 0.733,-0.55 0,0 M -2.826,-3.597 C -4.219,-2.552 -4.244,-1.143 -3.279,0.142 C -2.223,1.551 -0.548,1.621 0.639,0.731 C 1.883,-0.202 2.204,-1.576 1.116,-3.026 C 0.054,-4.443 -1.599,-4.518 -2.826,-3.597"
             style="fill:#46ae33;fill-opacity:1;fill-rule:nonzero;stroke:none"
             id="path103" /></g><g
           id="g105"
           transform="translate(85.2461,81.687)"><path
             d="M 0,0 C -0.131,0.13 -0.233,0.232 -0.351,0.319 L -1.438,-0.778 C -1.335,-0.894 -1.211,-1.031 -1.087,-1.155 C -0.67,-1.568 -0.16,-1.595 0.194,-1.237 C 0.535,-0.893 0.446,-0.442 0,0 M -2.399,-3.999 L -1.938,-1.354 L -1.974,-1.318 L -3.525,-2.883 L -4.314,-2.1 L -0.545,1.701 C -0.253,1.44 0.251,0.955 0.719,0.491 C 1.625,-0.408 1.804,-1.281 1.107,-1.982 C 0.491,-2.604 -0.31,-2.549 -1.01,-2.042 C -1.023,-2.231 -1.066,-2.479 -1.109,-2.756 L -1.428,-4.963 L -2.399,-3.999 z"
             style="fill:#46ae33;fill-opacity:1;fill-rule:nonzero;stroke:none"
             id="path107" /></g><g
           id="g109"
           transform="translate(85.957,73.9556)"><path
             d="M 0,0 C -0.988,1.269 -0.987,2.745 0.395,3.822 C 1.664,4.81 3.34,4.704 4.486,3.232 C 4.834,2.785 5.111,2.294 5.323,1.754 L 4.438,1.313 C 4.293,1.801 4.077,2.247 3.761,2.654 C 3.146,3.442 2.156,3.691 1.196,2.943 C 0.294,2.241 0.222,1.31 0.836,0.521 C 1.007,0.301 1.211,0.106 1.398,-0.034 L 2.822,1.074 L 3.506,0.195 L 1.513,-1.356 C 0.946,-1.014 0.449,-0.577 0,0"
             style="fill:#46ae33;fill-opacity:1;fill-rule:nonzero;stroke:none"
             id="path111" /></g></g></g></g></svg>