<?xml version="1.0" encoding="UTF-8" standalone="no"?>
<!-- Created with Inkscape (http://www.inkscape.org/) -->
<svg
   xmlns:dc="http://purl.org/dc/elements/1.1/"
   xmlns:cc="http://creativecommons.org/ns#"
   xmlns:rdf="http://www.w3.org/1999/02/22-rdf-syntax-ns#"
   xmlns:svg="http://www.w3.org/2000/svg"
   xmlns="http://www.w3.org/2000/svg"
   xmlns:sodipodi="http://sodipodi.sourceforge.net/DTD/sodipodi-0.dtd"
   xmlns:inkscape="http://www.inkscape.org/namespaces/inkscape"
   id="svg2"
   sodipodi:version="0.32"
   inkscape:version="0.46"
   width="180"
   height="90"
   xml:space="preserve"
   sodipodi:docname="OSGeo SmallSticker-FIN.svg"
   inkscape:output_extension="org.inkscape.output.svg.inkscape"><metadata
     id="metadata7"><rdf:RDF><cc:Work
         rdf:about=""><dc:format>image/svg+xml</dc:format><dc:type
           rdf:resource="http://purl.org/dc/dcmitype/StillImage" /></cc:Work></rdf:RDF></metadata><defs
     id="defs5"><inkscape:perspective
       sodipodi:type="inkscape:persp3d"
       inkscape:vp_x="0 : 526.18109 : 1"
       inkscape:vp_y="0 : 1000 : 0"
       inkscape:vp_z="744.09448 : 526.18109 : 1"
       inkscape:persp3d-origin="372.04724 : 350.78739 : 1"
       id="perspective9" /><clipPath
       clipPathUnits="userSpaceOnUse"
       id="clipPath17"><path
         d="M 0,72 L 144,72 L 144,0 L 0,0 L 0,72 z"
         id="path19" /></clipPath></defs><sodipodi:namedview
     inkscape:window-height="713"
     inkscape:window-width="640"
     inkscape:pageshadow="2"
     inkscape:pageopacity="0.0"
     guidetolerance="10.0"
     gridtolerance="10.0"
     objecttolerance="10.0"
     borderopacity="1.0"
     bordercolor="#666666"
     pagecolor="#ffffff"
     id="base"
     showgrid="false"
     inkscape:zoom="3.0166667"
     inkscape:cx="90"
     inkscape:cy="45"
     inkscape:window-x="0"
     inkscape:window-y="22"
     inkscape:current-layer="g11" /><g
     id="g11"
     inkscape:groupmode="layer"
     inkscape:label="OSGeo SmallSticker-FIN"
     transform="matrix(1.25,0,0,-1.25,0,90)"><g
       id="g13"><g
         id="g15"
         clip-path="url(#clipPath17)"><g
           id="g21"
           transform="translate(58.5371,31.541)"><path
             d="M 0,0 C -0.831,1.418 -1.252,3.213 -1.252,5.332 C -1.252,7.536 -0.842,9.298 -0.033,10.571 C 0.768,11.831 1.951,12.467 3.485,12.467 C 7.016,12.467 8.732,10.134 8.732,5.332 C 8.732,2.978 8.276,1.125 7.38,-0.173 C 6.492,-1.458 5.183,-2.109 3.485,-2.109 C 1.994,-2.109 0.822,-1.399 0,0 M -2.092,12.194 C -3.453,10.36 -4.145,8.053 -4.145,5.332 C -4.145,2.443 -3.469,0.042 -2.129,-1.81 C -0.785,-3.671 1.104,-4.614 3.482,-4.614 C 6.09,-4.614 8.121,-3.721 9.521,-1.96 C 10.916,-0.205 11.624,2.248 11.624,5.332 C 11.624,8.343 10.918,10.724 9.527,12.416 C 8.132,14.111 6.1,14.972 3.482,14.972 C 1.153,14.972 -0.718,14.037 -2.092,12.194"
             style="fill:#46ae33;fill-opacity:1;fill-rule:nonzero;stroke:none"
             id="path23" /></g><g
           id="g25"
           transform="translate(73.4453,45.1035)"><path
             d="M 0,0 C -1.009,-0.937 -1.521,-2.134 -1.521,-3.555 C -1.521,-4.721 -1.26,-5.733 -0.743,-6.565 C -0.229,-7.396 0.687,-8.125 1.979,-8.727 L 3.486,-9.432 C 4.815,-10.058 5.658,-10.641 5.981,-11.164 C 6.305,-11.686 6.47,-12.261 6.47,-12.87 C 6.47,-13.68 6.178,-14.356 5.598,-14.88 C 5.017,-15.405 4.232,-15.672 3.267,-15.672 C 2.721,-15.672 2.09,-15.558 1.393,-15.325 C 0.697,-15.096 0.106,-14.808 -0.359,-14.464 L -0.468,-14.383 L -1.479,-16.937 L -1.411,-16.982 C -0.223,-17.774 1.229,-18.177 2.905,-18.177 C 4.814,-18.177 6.358,-17.673 7.503,-16.681 C 8.65,-15.683 9.233,-14.451 9.233,-13.021 C 9.233,-11.711 8.968,-10.615 8.443,-9.763 C 7.918,-8.908 6.996,-8.166 5.703,-7.554 L 4.169,-6.826 C 3.188,-6.352 2.532,-5.983 2.224,-5.726 C 1.915,-5.473 1.673,-5.154 1.501,-4.777 C 1.328,-4.398 1.243,-3.975 1.243,-3.513 C 1.243,-2.77 1.484,-2.15 1.961,-1.679 C 2.438,-1.206 3.109,-0.965 3.95,-0.965 C 4.534,-0.965 5.179,-1.082 5.869,-1.307 C 6.556,-1.536 7.071,-1.772 7.407,-2.012 L 7.519,-2.097 L 8.345,0.33 L 8.29,0.375 C 7.463,1.061 5.983,1.409 3.89,1.409 C 2.316,1.409 1.007,0.936 0,0"
             style="fill:#46ae33;fill-opacity:1;fill-rule:nonzero;stroke:none"
             id="path27" /></g><g
           id="g29"
           transform="translate(86.9541,43.7729)"><path
             d="M 0,0 C -1.648,-1.813 -2.484,-4.212 -2.484,-7.123 C -2.484,-10.042 -1.72,-12.418 -0.216,-14.181 C 1.292,-15.949 3.374,-16.846 5.974,-16.846 C 7.125,-16.846 8.33,-16.665 9.553,-16.311 C 10.781,-15.956 11.75,-15.475 12.44,-14.888 L 12.477,-14.858 L 12.477,-6.544 L 7.125,-6.544 L 7.125,-8.919 L 9.715,-8.919 L 9.715,-13.165 C 8.899,-13.943 7.822,-14.34 6.512,-14.34 C 4.636,-14.34 3.138,-13.686 2.052,-12.395 C 0.962,-11.096 0.412,-9.359 0.412,-7.227 C 0.412,-4.983 0.971,-3.157 2.083,-1.801 C 3.188,-0.448 4.717,0.236 6.633,0.236 C 7.838,0.236 9.088,-0.24 10.347,-1.173 L 10.446,-1.245 L 11.598,1.043 L 11.536,1.095 C 10.296,2.187 8.673,2.74 6.707,2.74 C 3.907,2.74 1.652,1.817 0,0"
             style="fill:#46ae33;fill-opacity:1;fill-rule:nonzero;stroke:none"
             id="path31" /></g><g
           id="g33"
           transform="translate(105.6045,38.1362)"><path
             d="M 0,0 C 0.707,0.676 1.599,1.02 2.646,1.02 C 3.769,1.02 4.667,0.67 5.316,-0.02 C 5.884,-0.629 6.167,-1.401 6.189,-2.299 L -1.126,-2.299 C -1.016,-1.395 -0.65,-0.615 0,0 M -1.896,1.406 C -3.281,0.027 -3.984,-1.824 -3.984,-4.099 C -3.984,-6.292 -3.298,-8.062 -1.946,-9.364 C -0.729,-10.544 0.767,-11.144 2.506,-11.144 C 3.706,-11.144 4.808,-10.96 5.787,-10.596 C 6.571,-10.319 7.164,-9.981 7.55,-9.592 L 7.603,-9.536 L 6.479,-7.612 L 6.386,-7.696 C 5.48,-8.495 4.335,-8.9 2.98,-8.9 C 1.793,-8.9 0.814,-8.53 0.063,-7.803 C -0.769,-6.985 -1.194,-5.798 -1.214,-4.287 L 8.626,-4.287 L 8.646,-4.21 C 8.774,-3.75 8.841,-3.242 8.841,-2.698 C 8.841,-0.929 8.291,0.512 7.198,1.584 C 6.076,2.699 4.509,3.265 2.535,3.265 C 0.836,3.265 -0.653,2.638 -1.896,1.406"
             style="fill:#46ae33;fill-opacity:1;fill-rule:nonzero;stroke:none"
             id="path35" /></g><g
           id="g37"
           transform="translate(118.9131,34.2285)"><path
             d="M 0,0 C 0,1.558 0.326,2.795 0.97,3.678 C 1.608,4.549 2.473,4.991 3.542,4.991 C 5.916,4.991 7.071,3.359 7.071,0 C 7.071,-1.567 6.755,-2.817 6.124,-3.718 C 5.504,-4.606 4.636,-5.055 3.542,-5.055 C 1.157,-5.055 0,-3.401 0,0 M -1.031,5.188 C -2.182,3.875 -2.765,2.13 -2.765,0 C -2.765,-2.196 -2.204,-3.971 -1.103,-5.271 C 0.004,-6.575 1.566,-7.235 3.542,-7.235 C 5.475,-7.235 7.021,-6.581 8.147,-5.29 C 9.268,-4.001 9.834,-2.224 9.834,0 C 9.834,2.23 9.28,4.002 8.186,5.264 C 7.087,6.531 5.525,7.173 3.542,7.173 C 1.663,7.173 0.12,6.505 -1.031,5.188"
             style="fill:#46ae33;fill-opacity:1;fill-rule:nonzero;stroke:none"
             id="path39" /></g><g
           id="g41"
           transform="translate(35.7949,40.5166)"><path
             d="M 0,0 L 6.981,2.245 L 0.624,-1.321 L 4.266,-3.794 L 0.121,-2.699 L 2.439,-9.906 L -1.23,-3.309 L -3.45,-6.997 L -2.617,-2.754 L -9.557,-5.07 L -3.178,-1.402 L -7.189,0.881 L -2.617,-0.067 L -5.188,6.72 L -1.324,0.486 L 0.939,4.422 L 0,0 z"
             style="fill:#46ae33;fill-opacity:1;fill-rule:evenodd;stroke:none"
             id="path43" /></g><g
           id="g45"
           transform="translate(34.5254,57.8022)"><path
             d="M 0,0 C 7.083,0 13.242,-3.932 16.428,-9.729 L 17.755,-9.535 C 14.42,-3.126 7.726,1.254 0,1.254 C -2.159,1.254 -4.239,0.908 -6.189,0.275 L -5.41,-0.797 C -3.697,-0.281 -1.881,0 0,0"
             style="fill:#46ae33;fill-opacity:1;fill-rule:nonzero;stroke:none"
             id="path47" /></g><g
           id="g49"
           transform="translate(43.1963,19.748)"><path
             d="M 0,0 L -11.235,13.134 L -28.161,10.661 L -15.361,21.591 L -15.188,21.74 L -19.577,43.37 L -6.498,25.455 L 10.445,27.929 L -2.474,16.932 L 0,0 z M -8.669,0.593 C -15.752,0.593 -21.913,4.522 -25.097,10.319 L -18.566,11.274 C -16.274,8.382 -12.733,6.524 -8.757,6.524 C -8.071,6.524 -7.401,6.581 -6.748,6.687 L -2.443,1.655 C -4.392,0.968 -6.487,0.593 -8.669,0.593 M -18.7,35.138 L -17.29,28.181 C -19.735,25.898 -21.269,22.646 -21.269,19.035 C -21.269,18.564 -21.239,18.099 -21.188,17.642 L -26.421,13.174 L -26.376,13.214 C -27.037,15.128 -27.401,17.182 -27.401,19.323 C -27.401,25.978 -23.929,31.816 -18.7,35.138 M 3.754,19.035 C 3.754,19.727 3.695,20.405 3.589,21.065 L 13.019,29.093 L 0.645,27.287 C -1.647,29.896 -5.009,31.546 -8.757,31.546 C -9.146,31.546 -9.528,31.527 -9.908,31.492 L -21.096,46.94 L -18.969,36.457 C -24.785,32.957 -28.679,26.583 -28.679,19.298 C -28.679,16.843 -28.235,14.493 -27.424,12.318 L -30.727,9.499 L -26.448,10.124 C -23.122,3.691 -16.411,-0.71 -8.669,-0.71 C -6.158,-0.71 -3.759,-0.241 -1.545,0.604 L 1.162,-2.56 L -0.606,9.548 C 2.062,11.843 3.754,15.24 3.754,19.035"
             style="fill:#97d550;fill-opacity:1;fill-rule:nonzero;stroke:none"
             id="path51" /></g><g
           id="g53"
           transform="translate(16.748,29.8721)"><path
             d="M 0,0 C 3.326,-6.434 10.036,-10.834 17.777,-10.834 C 20.29,-10.834 22.689,-10.366 24.902,-9.52 L 24.004,-8.469 C 22.056,-9.156 19.963,-9.531 17.777,-9.531 C 10.697,-9.531 4.535,-5.602 1.352,0.195 L 0,0 z M 7.479,26.333 C 1.663,22.833 -2.23,16.459 -2.23,9.174 C -2.23,6.72 -1.785,4.368 -0.977,2.194 L 0.072,3.088 C -0.588,5.004 -0.953,7.058 -0.953,9.199 C -0.953,15.854 2.52,21.692 7.746,25.014 L 7.479,26.333 z"
             style="fill:#46ae33;fill-opacity:1;fill-rule:nonzero;stroke:none"
             id="path55" /></g><g
           id="g57"
           transform="translate(61.647,20.5557)"><path
             d="M 0,0 C -0.524,0 -0.969,0 -1.362,-0.026 L -2.253,-4.638 C -1.939,-4.689 -1.493,-4.716 -1.153,-4.716 C 1.153,-4.716 2.227,-3.144 2.227,-1.729 C 2.227,-0.655 1.52,0 0,0 M -1.284,-6.995 C -1.782,-6.995 -2.384,-6.969 -2.672,-6.942 L -3.537,-11.423 L -6.288,-11.423 L -3.694,2.201 C -2.567,2.227 -0.917,2.253 0.524,2.253 C 3.38,2.253 5.188,1.048 5.188,-1.31 C 5.188,-4.663 2.41,-6.995 -1.284,-6.995"
             style="fill:#2151a8;fill-opacity:1;fill-rule:nonzero;stroke:none"
             id="path59" /></g><g
           id="g61"
           transform="translate(76.4521,20.5293)"><path
             d="M 0,0 C -2.646,0 -4.951,-2.384 -4.951,-6.156 C -4.951,-7.965 -4.061,-9.144 -2.043,-9.144 C 1.18,-9.144 2.961,-6.025 2.961,-3.091 C 2.961,-1.258 2.018,0 0,0 M -2.384,-11.632 C -6.052,-11.632 -7.859,-9.693 -7.859,-6.497 C -7.859,-1.598 -4.375,2.463 0.445,2.463 C 4.088,2.463 5.896,0.394 5.896,-2.829 C 5.896,-7.755 2.228,-11.632 -2.384,-11.632"
             style="fill:#2151a8;fill-opacity:1;fill-rule:nonzero;stroke:none"
             id="path63" /></g><g
           id="g65"
           transform="translate(99.1436,9.1328)"><path
             d="M 0,0 L -3.458,0 L -4.401,7.179 C -4.532,8.227 -4.611,9.354 -4.663,10.349 L -4.689,10.349 C -5.082,9.458 -5.58,8.331 -6.104,7.257 L -9.772,0 L -13.126,0 L -14.672,13.624 L -11.658,13.624 L -10.847,5.974 C -10.741,5.004 -10.663,4.113 -10.663,3.275 L -10.61,3.275 C -10.296,4.113 -9.851,5.108 -9.405,5.947 L -5.528,13.624 L -2.463,13.624 L -1.44,6.052 C -1.336,5.292 -1.258,4.244 -1.205,3.275 L -1.179,3.275 C -0.812,4.14 -0.314,5.24 0.105,6.104 L 3.772,13.624 L 6.76,13.624 L 0,0 z"
             style="fill:#2151a8;fill-opacity:1;fill-rule:nonzero;stroke:none"
             id="path67" /></g><g
           id="g69"
           transform="translate(115.5498,20.5293)"><path
             d="M 0,0 L -5.057,0 L -5.711,-3.327 L -0.891,-3.327 L -1.283,-5.476 L -6.131,-5.476 L -6.812,-9.144 L -1.755,-9.144 L -2.175,-11.396 L -10.008,-11.396 L -7.414,2.228 L 0.419,2.228 L 0,0 z"
             style="fill:#2151a8;fill-opacity:1;fill-rule:nonzero;stroke:none"
             id="path71" /></g><g
           id="g73"
           transform="translate(123.0713,20.6602)"><path
             d="M 0,0 C -0.576,0 -0.943,0 -1.258,-0.052 L -2.044,-3.982 C -1.808,-4.008 -1.546,-4.034 -0.864,-4.034 C 0.864,-4.034 2.069,-2.934 2.069,-1.493 C 2.069,-0.603 1.467,0 0,0 M 0.498,-5.554 C 0.76,-5.947 0.995,-6.419 1.31,-6.995 L 3.825,-11.527 L 0.523,-11.527 L -2.306,-5.842 L -2.41,-5.842 L -3.484,-11.527 L -6.235,-11.527 L -3.642,2.097 C -2.673,2.148 -0.943,2.175 0.629,2.175 C 3.772,2.175 5.057,0.813 5.057,-1.021 C 5.057,-3.903 2.567,-5.37 0.498,-5.554"
             style="fill:#2151a8;fill-opacity:1;fill-rule:nonzero;stroke:none"
             id="path75" /></g><g
           id="g77"
           transform="translate(140.833,11.5)"><path
             d="M 0,0 C 0,-4.418 -3.582,-8 -8,-8 L -129.833,-8 C -134.251,-8 -137.833,-4.418 -137.833,0 L -137.833,49.333 C -137.833,53.751 -134.251,57.333 -129.833,57.333 L -8,57.333 C -3.582,57.333 0,53.751 0,49.333 L 0,0 z M -140.833,-11.5 L 3.167,-11.5 L 3.167,60.5 L -140.833,60.5 L -140.833,-11.5 z"
             style="fill:#46ae33;fill-opacity:1;fill-rule:nonzero;stroke:none"
             id="path79" /></g></g></g></g></svg>