<?xml version="1.0" encoding="UTF-8" standalone="no"?>
<!-- Created with Inkscape (http://www.inkscape.org/) -->

<svg
   xmlns:dc="http://purl.org/dc/elements/1.1/"
   xmlns:cc="http://creativecommons.org/ns#"
   xmlns:rdf="http://www.w3.org/1999/02/22-rdf-syntax-ns#"
   xmlns:svg="http://www.w3.org/2000/svg"
   xmlns="http://www.w3.org/2000/svg"
   xmlns:sodipodi="http://sodipodi.sourceforge.net/DTD/sodipodi-0.dtd"
   xmlns:inkscape="http://www.inkscape.org/namespaces/inkscape"
   id="svg2"
   sodipodi:version="0.32"
   inkscape:version="0.91 r13725"
   width="360"
   height="180"
   xml:space="preserve"
   sodipodi:docname="sticker_large.svg"
   inkscape:output_extension="org.inkscape.output.svg.inkscape"
   version="1.1"><metadata
     id="metadata7"><rdf:RDF><cc:Work
         rdf:about=""><dc:format>image/svg+xml</dc:format><dc:type
           rdf:resource="http://purl.org/dc/dcmitype/StillImage" /></cc:Work></rdf:RDF></metadata><defs
     id="defs5"><inkscape:perspective
       sodipodi:type="inkscape:persp3d"
       inkscape:vp_x="0 : 526.18109 : 1"
       inkscape:vp_y="0 : 1000 : 0"
       inkscape:vp_z="744.09448 : 526.18109 : 1"
       inkscape:persp3d-origin="372.04724 : 350.78739 : 1"
       id="perspective9" /><clipPath
       clipPathUnits="userSpaceOnUse"
       id="clipPath17"><path
         d="M 0,144 L 288,144 L 288,0 L 0,0 L 0,144 z"
         id="path19" /></clipPath></defs><sodipodi:namedview
     inkscape:window-height="1016"
     inkscape:window-width="1920"
     inkscape:pageshadow="2"
     inkscape:pageopacity="0.0"
     guidetolerance="10.0"
     gridtolerance="10.0"
     objecttolerance="10.0"
     borderopacity="1.0"
     bordercolor="#666666"
     pagecolor="#ffffff"
     id="base"
     showgrid="false"
     inkscape:zoom="2.1331054"
     inkscape:cx="143.53669"
     inkscape:cy="32.00516"
     inkscape:window-x="0"
     inkscape:window-y="27"
     inkscape:current-layer="g11"
     inkscape:window-maximized="1" /><g
     id="g11"
     inkscape:groupmode="layer"
     inkscape:label="OSGeo LargeSticker-FIN"
     transform="matrix(1.25,0,0,-1.25,0,180)"><g
       id="g13"><g
         id="g15"
         clip-path="url(#clipPath17)"><g
           id="g21"
           transform="translate(116.5693,48.1953)"><path
             d="M 0,0 C -1.896,3.233 -2.856,7.326 -2.856,12.157 C -2.856,17.184 -1.919,21.201 -0.075,24.104 C 1.75,26.977 4.452,28.43 7.947,28.43 C 16,28.43 19.912,23.109 19.912,12.157 C 19.912,6.788 18.873,2.566 16.831,-0.396 C 14.805,-3.324 11.82,-4.811 7.947,-4.811 C 4.548,-4.811 1.875,-3.194 0,0 M -4.769,27.807 C -7.873,23.625 -9.45,18.362 -9.45,12.157 C -9.45,5.572 -7.907,0.096 -4.855,-4.126 C -1.791,-8.37 2.517,-10.522 7.945,-10.522 C 13.888,-10.522 18.521,-8.485 21.715,-4.471 C 24.895,-0.47 26.51,5.126 26.51,12.157 C 26.51,19.025 24.898,24.456 21.726,28.312 C 18.543,32.18 13.91,34.142 7.945,34.142 C 2.633,34.142 -1.64,32.007 -4.769,27.807"
             style="fill:#46ae33;fill-opacity:1;fill-rule:nonzero;stroke:none"
             id="path23" /></g><g
           id="g25"
           transform="translate(150.5635,79.123)"><path
             d="M 0,0 C -2.298,-2.138 -3.466,-4.866 -3.466,-8.108 C -3.466,-10.766 -2.869,-13.075 -1.694,-14.971 C -0.519,-16.867 1.568,-18.527 4.517,-19.899 L 7.954,-21.508 C 10.986,-22.938 12.903,-24.265 13.644,-25.459 C 14.382,-26.649 14.757,-27.959 14.757,-29.353 C 14.757,-31.196 14.089,-32.737 12.767,-33.932 C 11.44,-35.132 9.655,-35.738 7.45,-35.738 C 6.206,-35.738 4.766,-35.478 3.178,-34.948 C 1.59,-34.427 0.245,-33.766 -0.814,-32.983 L -1.063,-32.797 L -3.368,-38.623 L -3.217,-38.727 C -0.504,-40.536 2.809,-41.452 6.627,-41.452 C 10.98,-41.452 14.504,-40.302 17.113,-38.038 C 19.729,-35.763 21.06,-32.954 21.06,-29.691 C 21.06,-26.705 20.456,-24.207 19.257,-22.266 C 18.06,-20.315 15.957,-18.621 13.009,-17.226 L 9.51,-15.565 C 7.275,-14.484 5.778,-13.646 5.068,-13.056 C 4.369,-12.479 3.816,-11.753 3.427,-10.894 C 3.032,-10.031 2.836,-9.065 2.836,-8.013 C 2.836,-6.317 3.389,-4.904 4.477,-3.83 C 5.563,-2.75 7.095,-2.203 9.01,-2.203 C 10.341,-2.203 11.813,-2.466 13.385,-2.982 C 14.952,-3.502 16.13,-4.041 16.894,-4.588 L 17.149,-4.782 L 19.03,0.752 L 18.908,0.856 C 17.021,2.418 13.646,3.212 8.872,3.212 C 5.281,3.212 2.299,2.133 0,0"
             style="fill:#46ae33;fill-opacity:1;fill-rule:nonzero;stroke:none"
             id="path27" /></g><g
           id="g29"
           transform="translate(181.373,76.0884)"><path
             d="M 0,0 C -3.758,-4.134 -5.664,-9.606 -5.664,-16.242 C -5.664,-22.902 -3.925,-28.317 -0.495,-32.337 C 2.944,-36.369 7.693,-38.416 13.62,-38.416 C 16.247,-38.416 18.995,-38.003 21.783,-37.195 C 24.583,-36.383 26.792,-35.29 28.366,-33.951 L 28.449,-33.884 L 28.449,-14.925 L 16.247,-14.925 L 16.247,-20.34 L 22.153,-20.34 L 22.153,-30.019 C 20.294,-31.794 17.838,-32.704 14.846,-32.704 C 10.57,-32.704 7.15,-31.209 4.678,-28.265 C 2.191,-25.303 0.936,-21.341 0.936,-16.48 C 0.936,-11.364 2.213,-7.2 4.749,-4.105 C 7.27,-1.021 10.759,0.539 15.125,0.539 C 17.87,0.539 20.723,-0.546 23.595,-2.675 L 23.819,-2.839 L 26.444,2.38 L 26.307,2.498 C 23.479,4.986 19.774,6.249 15.294,6.249 C 8.91,6.249 3.768,4.144 0,0"
             style="fill:#46ae33;fill-opacity:1;fill-rule:nonzero;stroke:none"
             id="path31" /></g><g
           id="g33"
           transform="translate(223.9004,63.2334)"><path
             d="M 0,0 C 1.612,1.541 3.646,2.327 6.037,2.327 C 8.594,2.327 10.643,1.53 12.125,-0.044 C 13.418,-1.432 14.063,-3.193 14.115,-5.243 L -2.567,-5.243 C -2.313,-3.178 -1.48,-1.401 0,0 M -4.322,3.207 C -7.48,0.065 -9.084,-4.157 -9.084,-9.345 C -9.084,-14.347 -7.52,-18.384 -4.438,-21.351 C -1.666,-24.044 1.747,-25.411 5.717,-25.411 C 8.453,-25.411 10.965,-24.991 13.198,-24.161 C 14.987,-23.528 16.34,-22.76 17.217,-21.874 L 17.339,-21.746 L 14.776,-17.358 L 14.564,-17.546 C 12.499,-19.369 9.888,-20.293 6.798,-20.293 C 4.092,-20.293 1.858,-19.451 0.146,-17.795 C -1.753,-15.928 -2.722,-13.223 -2.767,-9.774 L 19.667,-9.774 L 19.714,-9.598 C 20.009,-8.554 20.162,-7.392 20.162,-6.151 C 20.162,-2.118 18.905,1.168 16.417,3.615 C 13.856,6.155 10.282,7.445 5.784,7.445 C 1.909,7.445 -1.486,6.018 -4.322,3.207"
             style="fill:#46ae33;fill-opacity:1;fill-rule:nonzero;stroke:none"
             id="path35" /></g><g
           id="g37"
           transform="translate(254.252,54.3252)"><path
             d="M 0,0 C 0,3.551 0.743,6.374 2.211,8.385 C 3.667,10.373 5.636,11.38 8.076,11.38 C 13.489,11.38 16.123,7.658 16.123,0 C 16.123,-3.575 15.4,-6.428 13.964,-8.48 C 12.552,-10.505 10.57,-11.528 8.076,-11.528 C 2.639,-11.528 0,-7.758 0,0 M -2.355,11.828 C -4.976,8.834 -6.304,4.855 -6.304,0 C -6.304,-5.011 -5.026,-9.058 -2.514,-12.021 C 0.009,-14.996 3.571,-16.501 8.076,-16.501 C 12.482,-16.501 16.011,-15.01 18.577,-12.063 C 21.132,-9.127 22.424,-5.07 22.424,0 C 22.424,5.084 21.161,9.125 18.663,12.002 C 16.158,14.892 12.6,16.355 8.076,16.355 C 3.788,16.355 0.274,14.834 -2.355,11.828"
             style="fill:#46ae33;fill-opacity:1;fill-rule:nonzero;stroke:none"
             id="path39" /></g><g
           id="g41"
           transform="translate(64.7075,68.6641)"><path
             d="M 0,0 L 15.923,5.118 L 1.423,-3.013 L 9.729,-8.653 L 0.276,-6.155 L 5.566,-22.589 L -2.805,-7.547 L -7.866,-15.958 L -5.968,-6.283 L -21.791,-11.563 L -7.243,-3.197 L -16.394,2.01 L -5.968,-0.155 L -11.826,15.324 L -3.018,1.108 L 2.143,10.085 L 0,0 z"
             style="fill:#46ae33;fill-opacity:1;fill-rule:evenodd;stroke:none"
             id="path43" /></g><g
           id="g45"
           transform="translate(61.8174,108.0811)"><path
             d="M 0,0 C 16.147,0 30.194,-8.966 37.458,-22.187 L 40.483,-21.743 C 32.88,-7.128 17.613,2.86 0,2.86 C -4.928,2.86 -9.669,2.071 -14.116,0.627 L -12.343,-1.819 C -8.436,-0.642 -4.294,0 0,0"
             style="fill:#46ae33;fill-opacity:1;fill-rule:nonzero;stroke:none"
             id="path47" /></g><g
           id="g49"
           transform="translate(81.585,21.3018)"><path
             d="M 0,0 L -25.616,29.951 L -64.217,24.313 L -35.029,49.237 L -34.63,49.579 L -44.643,98.901 L -14.816,58.047 L 23.822,63.69 L -5.639,38.613 L 0,0 z M -19.767,1.354 C -35.918,1.354 -49.967,10.315 -57.228,23.534 L -42.334,25.708 C -37.11,19.114 -29.036,14.88 -19.965,14.88 C -18.405,14.88 -16.877,15.008 -15.385,15.249 L -5.57,3.776 C -10.015,2.206 -14.791,1.354 -19.767,1.354 M -42.644,80.129 L -39.424,64.263 C -45.003,59.058 -48.498,51.644 -48.498,43.408 C -48.498,42.334 -48.432,41.274 -48.317,40.229 L -60.249,30.041 L -60.145,30.133 C -61.654,34.5 -62.482,39.183 -62.482,44.065 C -62.482,59.239 -54.564,72.554 -42.644,80.129 M 8.563,43.408 C 8.563,44.985 8.429,46.532 8.186,48.039 L 29.688,66.343 L 1.471,62.225 C -3.759,68.176 -11.422,71.939 -19.965,71.939 C -20.853,71.939 -21.727,71.894 -22.593,71.816 L -48.104,107.042 L -43.253,83.135 C -56.52,75.155 -65.397,60.62 -65.397,44.01 C -65.397,38.408 -64.384,33.051 -62.536,28.091 L -70.066,21.662 L -60.309,23.084 C -52.725,8.417 -37.423,-1.618 -19.767,-1.618 C -14.041,-1.618 -8.57,-0.548 -3.521,1.378 L 2.652,-5.839 L -1.38,21.774 C 4.703,27.006 8.563,34.753 8.563,43.408"
             style="fill:#97d550;fill-opacity:1;fill-rule:nonzero;stroke:none"
             id="path51" /></g><g
           id="g53"
           transform="translate(21.2739,44.3857)"><path
             d="M 0,0 C 7.586,-14.669 22.887,-24.702 40.543,-24.702 C 46.269,-24.702 51.741,-23.636 56.788,-21.706 L 54.739,-19.308 C 50.295,-20.878 45.523,-21.73 40.543,-21.73 C 24.394,-21.73 10.343,-12.769 3.083,0.45 L 0,0 z M 17.057,60.052 C 3.792,52.072 -5.084,37.536 -5.084,20.926 C -5.084,15.326 -4.07,9.963 -2.226,5.007 L 0.167,7.045 C -1.34,11.416 -2.173,16.099 -2.173,20.981 C -2.173,36.155 5.745,49.47 17.667,57.045 L 17.057,60.052 z"
             style="fill:#46ae33;fill-opacity:1;fill-rule:nonzero;stroke:none"
             id="path55" /></g><g
           id="g57"
           transform="translate(119.8643,103.6699)"><path
             d="M 0,0 C -0.636,0 -1.177,0 -1.654,-0.032 L -2.736,-5.631 C -2.354,-5.695 -1.813,-5.727 -1.4,-5.727 C 1.4,-5.727 2.704,-3.818 2.704,-2.1 C 2.704,-0.795 1.845,0 0,0 M -1.559,-8.495 C -2.164,-8.495 -2.895,-8.462 -3.245,-8.431 L -4.295,-13.871 L -7.635,-13.871 L -4.486,2.672 C -3.118,2.704 -1.113,2.736 0.636,2.736 C 4.104,2.736 6.299,1.272 6.299,-1.591 C 6.299,-5.663 2.927,-8.495 -1.559,-8.495"
             style="fill:#2151a8;fill-opacity:1;fill-rule:nonzero;stroke:none"
             id="path59" /></g><g
           id="g61"
           transform="translate(137.2012,103.6382)"><path
             d="M 0,0 C -3.213,0 -6.013,-2.895 -6.013,-7.477 C -6.013,-9.672 -4.931,-11.104 -2.481,-11.104 C 1.432,-11.104 3.595,-7.317 3.595,-3.754 C 3.595,-1.527 2.45,0 0,0 M -2.895,-14.125 C -7.349,-14.125 -9.544,-11.771 -9.544,-7.89 C -9.544,-1.941 -5.313,2.991 0.541,2.991 C 4.963,2.991 7.158,0.477 7.158,-3.436 C 7.158,-9.417 2.704,-14.125 -2.895,-14.125"
             style="fill:#2151a8;fill-opacity:1;fill-rule:nonzero;stroke:none"
             id="path63" /></g><g
           id="g65"
           transform="translate(165.3867,89.7988)"><path
             d="M 0,0 L -4.199,0 L -5.345,8.717 C -5.504,9.99 -5.6,11.358 -5.663,12.567 L -5.695,12.567 C -6.172,11.485 -6.776,10.117 -7.413,8.813 L -11.867,0 L -15.939,0 L -17.816,16.543 L -14.157,16.543 L -13.171,7.254 C -13.044,6.077 -12.948,4.995 -12.948,3.977 L -12.885,3.977 C -12.503,4.995 -11.962,6.204 -11.422,7.222 L -6.713,16.543 L -2.99,16.543 L -1.75,7.349 C -1.623,6.427 -1.527,5.154 -1.464,3.977 L -1.432,3.977 C -0.986,5.027 -0.382,6.363 0.127,7.413 L 4.581,16.543 L 8.208,16.543 L 0,0 z"
             style="fill:#2151a8;fill-opacity:1;fill-rule:nonzero;stroke:none"
             id="path67" /></g><g
           id="g69"
           transform="translate(185.9346,103.6382)"><path
             d="M 0,0 L -6.14,0 L -6.936,-4.041 L -1.082,-4.041 L -1.559,-6.649 L -7.444,-6.649 L -8.271,-11.104 L -2.132,-11.104 L -2.641,-13.839 L -12.153,-13.839 L -9.003,2.704 L 0.509,2.704 L 0,0 z"
             style="fill:#2151a8;fill-opacity:1;fill-rule:nonzero;stroke:none"
             id="path71" /></g><g
           id="g73"
           transform="translate(195.7002,103.7974)"><path
             d="M 0,0 C -0.7,0 -1.146,0 -1.527,-0.064 L -2.481,-4.836 C -2.195,-4.868 -1.877,-4.899 -1.05,-4.899 C 1.05,-4.899 2.514,-3.563 2.514,-1.813 C 2.514,-0.732 1.781,0 0,0 M 0.604,-6.745 C 0.923,-7.222 1.209,-7.795 1.591,-8.495 L 4.645,-13.999 L 0.636,-13.999 L -2.8,-7.095 L -2.927,-7.095 L -4.231,-13.999 L -7.572,-13.999 L -4.422,2.545 C -3.245,2.609 -1.146,2.641 0.764,2.641 C 4.581,2.641 6.14,0.986 6.14,-1.241 C 6.14,-4.741 3.118,-6.522 0.604,-6.745"
             style="fill:#2151a8;fill-opacity:1;fill-rule:nonzero;stroke:none"
             id="path75" /></g><g
           id="g77"
           transform="translate(216.377,103.6382)"><path
             d="M 0,0 L -6.14,0 L -6.936,-4.041 L -1.082,-4.041 L -1.559,-6.649 L -7.444,-6.649 L -8.271,-11.104 L -2.132,-11.104 L -2.641,-13.839 L -12.153,-13.839 L -9.003,2.704 L 0.509,2.704 L 0,0 z"
             style="fill:#2151a8;fill-opacity:1;fill-rule:nonzero;stroke:none"
             id="path79" /></g><g
           id="g81"
           transform="translate(226.9063,103.6382)"><path
             d="M 0,0 C -0.891,0 -1.718,-0.032 -2.354,-0.063 L -4.423,-10.976 C -4.009,-11.008 -3.149,-11.071 -2.545,-11.071 C 3.182,-11.071 4.485,-6.236 4.485,-3.85 C 4.485,-1.718 3.34,0 0,0 M -2.863,-13.935 C -5.345,-13.935 -6.968,-13.871 -8.336,-13.839 L -5.186,2.704 C -3.786,2.704 -1.178,2.768 0.572,2.768 C 5.822,2.768 8.145,0.414 8.145,-3.309 C 8.145,-8.972 4.326,-13.935 -2.863,-13.935"
             style="fill:#2151a8;fill-opacity:1;fill-rule:nonzero;stroke:none"
             id="path83" /></g><g
           id="g85"
           transform="translate(252.0996,103.9883)"><path
             d="M 0,0 C -0.604,0 -1.336,-0.032 -1.94,-0.032 L -2.768,-4.55 C -2.259,-4.582 -1.75,-4.582 -1.527,-4.582 C 0.731,-4.582 2.608,-3.627 2.608,-1.654 C 2.608,-0.668 2.067,0 0,0 M -1.718,-6.777 C -2.1,-6.777 -2.8,-6.777 -3.214,-6.809 L -4.136,-11.645 C -3.69,-11.74 -3.055,-11.771 -2.259,-11.771 C 0.159,-11.771 1.559,-10.436 1.559,-8.654 C 1.559,-7.317 0.413,-6.777 -1.718,-6.777 M 2.895,-5.409 L 2.895,-5.44 C 4.391,-5.822 5.122,-7 5.122,-8.335 C 5.122,-11.072 2.99,-14.253 -2.736,-14.253 C -3.85,-14.253 -5.79,-14.221 -7.954,-14.189 L -4.804,2.354 C -3.309,2.354 -1.019,2.418 1.146,2.418 C 4.581,2.418 6.268,1.241 6.268,-1.05 C 6.268,-3.277 4.677,-4.708 2.895,-5.409"
             style="fill:#2151a8;fill-opacity:1;fill-rule:nonzero;stroke:none"
             id="path87" /></g><g
           id="g89"
           transform="translate(268.6094,95.3345)"><path
             d="M 0,0 L -1.082,-5.536 L -4.454,-5.536 L -3.404,-0.032 L -6.968,11.008 L -3.404,11.008 L -1.94,6.268 C -1.654,5.313 -1.368,4.263 -1.177,3.213 L -1.146,3.213 C -0.541,4.295 0.255,5.44 0.954,6.427 L 4.168,11.008 L 7.826,11.008 L 0,0 z"
             style="fill:#2151a8;fill-opacity:1;fill-rule:nonzero;stroke:none"
             id="path91" /></g></g></g><text
       xml:space="preserve"
       style="font-style:normal;font-weight:normal;font-size:10px;line-height:125%;font-family:sans-serif;letter-spacing:0px;word-spacing:0px;fill:#97d550;fill-opacity:1;stroke:none;stroke-width:1px;stroke-linecap:butt;stroke-linejoin:miter;stroke-opacity:1"
       x="86.234901"
       y="-24.828173"
       id="text4266"
       sodipodi:linespacing="125%"
       transform="scale(1,-1)"><tspan
         sodipodi:role="line"
         id="tspan4268"
         x="86.234901"
         y="-24.828173"
         style="font-style:italic;font-variant:normal;font-weight:bold;font-stretch:normal;font-family:sans-serif;-inkscape-font-specification:'sans-serif Bold Italic';font-size:13px">Your Open Source Compass</tspan></text>
</g></svg>